<svg width="40" height="24" viewBox="0 0 40 24" fill="none" xmlns="http://www.w3.org/2000/svg">
<rect width="40" height="24" rx="4" fill="#1677FF"/>
<g clip-path="url(#clip0_5986_42773)">
<path d="M25.8861 3.00001H13.8393C12.2705 3.00001 11 4.2817 11 5.86377V18.0125C11 19.5936 12.2705 20.8758 13.8393 20.8758H25.8861C27.4546 20.8758 28.7244 19.5936 28.7244 18.0125V5.86377C28.7244 4.2817 27.4546 3.00001 25.8861 3.00001Z" fill="white"/>
<path d="M15.7893 16.7466C13.0318 16.7466 12.2166 14.5561 13.5793 13.3576C14.0341 12.9526 14.865 12.7548 15.3081 12.7105C16.9461 12.5472 18.4623 13.1774 20.2517 14.0583C18.9939 15.713 17.3919 16.7466 15.7893 16.7466ZM25.5931 14.2244C24.8839 13.9848 23.9322 13.6184 22.8722 13.2317C23.5087 12.1156 24.0172 10.8446 24.3514 9.46327H20.8576V8.19413H25.1375V7.48572H20.8576V5.37005H19.111C18.8046 5.37005 18.8046 5.67511 18.8046 5.67511V7.48572H14.4759V8.19413H18.8046V9.46327H15.2307V10.1715H22.1621C21.9084 11.0529 21.5679 11.8803 21.1637 12.6321C18.9146 11.8837 16.5146 11.2771 15.0069 11.6504C14.0426 11.89 13.4216 12.3177 13.0568 12.7657C11.3823 14.8204 12.5833 17.9414 16.1196 17.9414C18.2105 17.9414 20.2247 16.7657 21.7859 14.8281C24.1143 15.957 28.7244 17.8952 28.7244 17.8952V15.1329C28.7244 15.1329 28.1454 15.0863 25.5931 14.2244Z" fill="#1677FF"/>
</g>
<defs>
<clipPath id="clip0_5986_42773">
<rect width="18" height="18" fill="white" transform="translate(11 3)"/>
</clipPath>
</defs>
</svg>
