<svg width="40" height="24" viewBox="0 0 40 24" fill="none" xmlns="http://www.w3.org/2000/svg">
<g clip-path="url(#clip0_5986_42762)">
<rect width="40" height="24" rx="4" fill="#016FD0"/>
<g clip-path="url(#clip1_5986_42762)">
<path d="M7 -0.999817H33V13.0358L31.7131 15.0466L33 16.8362V25.0002H7V11.7689L7.80433 10.844L7 9.95919V-0.999817Z" fill="#016FD0"/>
<path d="M12.0472 17.1176V13.0356H16.3692L16.8329 13.6401L17.312 13.0356H33V16.836C33 16.836 32.5897 17.1135 32.1152 17.1176H23.4285L22.9056 16.4741V17.1176H21.1924V16.0191C21.1924 16.0191 20.9584 16.1725 20.4524 16.1725H19.8693V17.1176H17.2753L16.8123 16.5001L16.3421 17.1176H12.0472Z" fill="white"/>
<path d="M7 9.959L7.97464 7.68677H9.66018L10.2133 8.95958V7.68677H12.3086L12.6379 8.60672L12.9571 7.68677H22.3627V8.14926C22.3627 8.14926 22.8572 7.68677 23.6698 7.68677L26.7215 7.69743L27.2651 8.95359V7.68677H29.0186L29.5012 8.40833V7.68677H31.2707V11.7687H29.5012L29.0387 11.0448V11.7687H26.4625L26.2034 11.1253H25.5108L25.256 11.7687H23.5089C22.8097 11.7687 22.3627 11.3157 22.3627 11.3157V11.7687H19.7285L19.2057 11.1253V11.7687H9.41048L9.15158 11.1253H8.46123L8.20416 11.7687H7V9.959Z" fill="white"/>
<path d="M8.31958 8.19L7.005 11.2465H7.86086L8.10342 10.6344H9.51351L9.75481 11.2465H10.6295L9.3162 8.19H8.31958ZM8.80595 8.90133L9.23577 9.97084H8.37488L8.80595 8.90133Z" fill="#016FD0"/>
<path d="M10.72 11.2459V8.18948L11.9363 8.194L12.6437 10.1646L13.3341 8.18948H14.5406V11.2459H13.7765V8.99382L12.9665 11.2459H12.2964L11.4841 8.99382V11.2459H10.72Z" fill="#016FD0"/>
<path d="M15.0634 11.2459V8.18948H17.5568V8.87317H15.8356V9.39598H17.5166V10.0394H15.8356V10.5824H17.5568V11.2459H15.0634Z" fill="#016FD0"/>
<path d="M17.9992 8.19V11.2465H18.7633V10.1606H19.0851L20.0012 11.2465H20.935L19.9296 10.1204C20.3422 10.0856 20.7679 9.73143 20.7679 9.18159C20.7679 8.53841 20.263 8.19 19.6996 8.19H17.9992ZM18.7633 8.87368H19.6368C19.8463 8.87368 19.9987 9.03758 19.9987 9.19542C19.9987 9.39847 19.8012 9.51715 19.6481 9.51715H18.7633V8.87368Z" fill="#016FD0"/>
<path d="M21.86 11.2459H21.0798V8.18948H21.86V11.2459Z" fill="#016FD0"/>
<path d="M23.71 11.2459H23.5415C22.7267 11.2459 22.232 10.604 22.232 9.73028C22.232 8.83499 22.7212 8.18948 23.7502 8.18948H24.5947V8.91338H23.7193C23.3016 8.91338 23.0062 9.23936 23.0062 9.73782C23.0062 10.3297 23.344 10.5783 23.8306 10.5783H24.0317L23.71 11.2459Z" fill="#016FD0"/>
<path d="M25.3727 8.19L24.0581 11.2465H24.914L25.1565 10.6344H26.5666L26.8079 11.2465H27.6826L26.3693 8.19H25.3727ZM25.8591 8.90133L26.2889 9.97084H25.428L25.8591 8.90133Z" fill="#016FD0"/>
<path d="M27.7719 11.2459V8.18948H28.7433L29.9838 10.1098V8.18948H30.7479V11.2459H29.8078L28.536 9.27533V11.2459H27.7719Z" fill="#016FD0"/>
<path d="M12.57 16.5947V13.5383H15.0634V14.222H13.3422V14.7448H15.0232V15.3882H13.3422V15.9312H15.0634V16.5947H12.57Z" fill="#016FD0"/>
<path d="M24.7878 16.5947V13.5383H27.2812V14.222H25.5599V14.7448H27.2329V15.3882H25.5599V15.9312H27.2812V16.5947H24.7878Z" fill="#016FD0"/>
<path d="M15.1602 16.5947L16.3742 15.0853L15.1313 13.5383H16.094L16.8342 14.4947L17.577 13.5383H18.5019L17.2753 15.0665L18.4916 16.5947H17.5291L16.8103 15.6534L16.1091 16.5947H15.1602Z" fill="#016FD0"/>
<path d="M18.5823 13.5388V16.5952H19.3666V15.63H20.1709C20.8515 15.63 21.3673 15.269 21.3673 14.5668C21.3673 13.9852 20.9627 13.5388 20.2702 13.5388H18.5823ZM19.3666 14.23H20.2136C20.4335 14.23 20.5906 14.3648 20.5906 14.5819C20.5906 14.7859 20.4343 14.9338 20.2111 14.9338H19.3666V14.23Z" fill="#016FD0"/>
<path d="M21.6992 13.5383V16.5947H22.4633V15.5089H22.785L23.7012 16.5947H24.635L23.6296 15.4687C24.0422 15.4338 24.4678 15.0797 24.4678 14.5299C24.4678 13.8867 23.963 13.5383 23.3996 13.5383H21.6992ZM22.4633 14.222H23.3367C23.5463 14.222 23.6987 14.3859 23.6987 14.5437C23.6987 14.7467 23.5012 14.8654 23.348 14.8654H22.4633V14.222Z" fill="#016FD0"/>
<path d="M27.6351 16.5947V15.9312H29.1643C29.3906 15.9312 29.4886 15.8089 29.4886 15.6748C29.4886 15.5463 29.3909 15.4164 29.1643 15.4164H28.4733C27.8726 15.4164 27.5381 15.0504 27.5381 14.501C27.5381 14.0109 27.8444 13.5383 28.737 13.5383H30.2251L29.9033 14.226H28.6164C28.3704 14.226 28.2947 14.3551 28.2947 14.4783C28.2947 14.605 28.3882 14.7448 28.5762 14.7448H29.3001C29.9697 14.7448 30.2602 15.1246 30.2602 15.622C30.2602 16.1567 29.9365 16.5947 29.2636 16.5947H27.6351Z" fill="#016FD0"/>
<path d="M30.4396 16.5947V15.9312H31.9688C32.1951 15.9312 32.293 15.8089 32.293 15.6748C32.293 15.5463 32.1954 15.4164 31.9688 15.4164H31.2777C30.6771 15.4164 30.3425 15.0504 30.3425 14.501C30.3425 14.0109 30.6489 13.5383 31.5415 13.5383H33.0295L32.7078 14.226H31.4208C31.1748 14.226 31.0991 14.3551 31.0991 14.4783C31.0991 14.605 31.1927 14.7448 31.3806 14.7448H32.1045C32.7741 14.7448 33.0647 15.1246 33.0647 15.622C33.0647 16.1567 32.7409 16.5947 32.0681 16.5947H30.4396Z" fill="#016FD0"/>
</g>
</g>
<defs>
<clipPath id="clip0_5986_42762">
<rect width="40" height="24" rx="4" fill="white"/>
</clipPath>
<clipPath id="clip1_5986_42762">
<rect width="26.0647" height="26" fill="white" transform="translate(7 -1)"/>
</clipPath>
</defs>
</svg>
