<svg width="40" height="24" viewBox="0 0 40 24" fill="none" xmlns="http://www.w3.org/2000/svg">
<rect x="0.5" y="0.5" width="39" height="23" rx="3.5" fill="white"/>
<rect x="0.5" y="0.5" width="39" height="23" rx="3.5" stroke="#DBDCE0"/>
<g clip-path="url(#clip0_7827_48928)">
<path d="M12.6228 21.2474C9.0239 16.448 9.60977 9.63766 14.1293 5.52922C13.9978 5.10974 13.7587 4.81363 13.3522 4.67792C8.37825 9.18116 7.7326 16.6455 11.6783 21.9013C12.0848 21.8396 12.3956 21.6175 12.6228 21.2474Z" fill="#EE754D"/>
<path d="M18.8163 6.33117C18.8163 5.91168 18.6848 5.55389 18.3739 5.27013C17.3935 5.67727 16.4728 6.25714 15.6359 6.9974C12.7543 9.56363 11.7739 13.4253 12.7663 16.8675C13.1728 16.9416 13.5554 16.8675 13.9022 16.6331C12.9935 13.5734 13.8543 10.1188 16.413 7.8487C17.1424 7.1948 17.9554 6.7013 18.8163 6.33117Z" fill="#F9B450"/>
<path d="M20.6456 3C18.4456 3.2961 16.3174 4.22143 14.5358 5.80065C12.0967 7.98442 10.8293 10.9578 10.7576 13.9682C11.1402 14.1903 11.5347 14.2026 11.9174 14.0299C11.9652 11.3032 13.113 8.61364 15.313 6.65195C16.9032 5.23312 18.8282 4.39416 20.813 4.13506C20.9684 3.7526 20.8967 3.38247 20.6456 3Z" fill="#EA516D"/>
<path d="M17.7163 9.72403H18.6728L21.3391 16.8552H20.0478L19.4141 14.9922H16.9272L16.2696 16.8552H15.062L17.7163 9.72403ZM19.0913 14.0669C18.8761 13.4377 18.6848 12.8578 18.5293 12.3396C18.3739 11.8214 18.2543 11.4143 18.1706 11.1182C18.075 11.439 17.9554 11.8461 17.788 12.3643C17.6326 12.8825 17.4533 13.4377 17.238 14.0545H19.0913V14.0669Z" fill="#1B1B1A"/>
<path d="M23.8261 16.8552H22.8695L20.2869 9.72403H21.5782L22.4391 12.2779C22.6543 12.9442 22.8456 13.524 23.0011 14.0175C23.1565 14.5234 23.2761 14.9058 23.3598 15.1649C23.4315 14.8935 23.5511 14.5234 23.7065 14.0299C23.8619 13.5364 24.0532 12.9565 24.2804 12.2903L25.1652 9.72403H26.3967L23.8261 16.8552Z" fill="#1B1B1A"/>
<path d="M28.8598 9.62532C29.0989 9.62532 29.3261 9.65 29.5413 9.69935C29.7565 9.7487 29.9598 9.79805 30.1391 9.85974C30.3185 9.92142 30.4739 9.98311 30.5935 10.0448C30.725 10.1065 30.8087 10.1558 30.8565 10.1929L30.3543 11.0935L30.2228 11.0195C30.1391 10.9701 30.0195 10.9084 29.8761 10.8467C29.7326 10.7851 29.5771 10.7234 29.4098 10.674C29.2424 10.6247 29.075 10.6 28.9195 10.6C28.6804 10.6 28.4652 10.6617 28.2858 10.7851C28.1065 10.9084 28.0108 11.0935 28.0108 11.3403C28.0108 11.661 28.1065 11.9201 28.3098 12.1175C28.5011 12.3149 28.8119 12.5 29.2424 12.6727C29.5174 12.7838 29.7565 12.9071 29.9717 13.0305C30.1869 13.1539 30.3663 13.2896 30.5217 13.4623C30.6771 13.6227 30.7848 13.8078 30.8685 14.0175C30.9521 14.2273 30.988 14.4864 30.988 14.7701C30.988 15.0416 30.9402 15.3006 30.8445 15.5597C30.7489 15.8188 30.6054 16.0532 30.4021 16.2506C30.2108 16.448 29.9717 16.6084 29.6848 16.7318C29.3978 16.8552 29.063 16.9169 28.6924 16.9169C28.4293 16.9169 28.1782 16.8922 27.9391 16.8305C27.7 16.7688 27.4848 16.7071 27.2935 16.6331C27.1021 16.5591 26.9348 16.4851 26.7913 16.411C26.6478 16.337 26.5521 16.2753 26.4804 16.226L26.9108 15.2513L27.0902 15.3623C27.2098 15.4364 27.3652 15.5104 27.5445 15.5967C27.7239 15.6831 27.9032 15.7571 28.1065 15.8312C28.2978 15.9052 28.4771 15.9422 28.6206 15.9422C28.9793 15.9422 29.2543 15.8558 29.4217 15.6708C29.6011 15.4857 29.6848 15.2266 29.6848 14.9058C29.6848 14.7455 29.6608 14.6221 29.613 14.4987C29.5652 14.3877 29.4935 14.2766 29.4098 14.2026C29.3261 14.1162 29.2185 14.0422 29.0869 13.9805C28.9554 13.9188 28.8239 13.8448 28.6685 13.7831C28.3576 13.6474 28.0826 13.5117 27.8435 13.3883C27.6043 13.2526 27.4011 13.1045 27.2217 12.9318C27.0543 12.7591 26.9228 12.5617 26.8391 12.3396C26.7554 12.1175 26.7076 11.8584 26.7076 11.55C26.7076 11.2909 26.7674 11.0442 26.875 10.8221C26.9826 10.6 27.138 10.3903 27.3293 10.2175C27.5206 10.0448 27.7478 9.90909 28.0108 9.81039C28.25 9.68701 28.5489 9.62532 28.8598 9.62532Z" fill="#1B1B1A"/>
</g>
<defs>
<clipPath id="clip0_7827_48928">
<rect width="22" height="19" fill="white" transform="translate(9 3)"/>
</clipPath>
</defs>
</svg>
