<svg width="40" height="24" viewBox="0 0 40 24" fill="none" xmlns="http://www.w3.org/2000/svg">
<rect x="0.5" y="0.5" width="39" height="23" rx="3.5" fill="white"/>
<rect x="0.5" y="0.5" width="39" height="23" rx="3.5" stroke="#DBDCE0"/>
<g clip-path="url(#clip0_7827_48908)">
<path d="M6.79507 5.03383C6.3593 5.03383 6.00635 5.38982 6.00635 5.82904V10.6006C6.00635 11.0399 6.3593 11.3959 6.79507 11.3959H11.5259C11.9611 11.3959 12.3143 11.0399 12.3143 10.6006V5.82904C12.3143 5.38982 11.9611 5.03383 11.5259 5.03383H6.79507Z" fill="url(#paint0_linear_7827_48908)"/>
<path d="M6.79507 12.4564C6.3593 12.4564 6.00635 12.8124 6.00635 13.2519V18.0235C6.00635 18.4624 6.3593 18.8184 6.79507 18.8184H11.5259C11.9611 18.8184 12.3143 18.4624 12.3143 18.0235V13.2519C12.3143 12.8124 11.9611 12.4564 11.5259 12.4564H6.79507Z" fill="url(#paint1_linear_7827_48908)"/>
<path d="M14.1542 5.03383C13.7187 5.03383 13.3658 5.38982 13.3658 5.82904V10.6006C13.3658 11.0399 13.7187 11.3959 14.1542 11.3959H18.885C19.3205 11.3959 19.6734 11.0399 19.6734 10.6006V5.82904C19.6734 5.38982 19.3205 5.03383 18.885 5.03383H14.1542Z" fill="url(#paint2_linear_7827_48908)"/>
<path fill-rule="evenodd" clip-rule="evenodd" d="M16.2662 14.2947C16.2662 14.5512 16.1117 14.8536 15.9392 14.9455C15.8301 15.0001 15.6938 15.0275 15.394 15.0275H14.6396V13.5705H15.3758C15.6577 13.5705 15.794 13.607 15.9027 13.6531C16.1299 13.7448 16.2662 14.0288 16.2662 14.2947ZM16.4025 16.9157C16.4025 17.218 16.2662 17.5114 16.0755 17.6579C15.9392 17.7682 15.7482 17.8047 15.4849 17.8047H14.6582V16.0815H15.4484C15.6845 16.0815 15.7847 16.0905 15.9392 16.1367C16.2208 16.219 16.4025 16.5491 16.4025 16.9157ZM17.8381 17.0715C17.8381 16.2377 17.3658 15.6968 16.5842 15.4674C16.8751 15.3757 16.9838 15.3118 17.1659 15.1376C17.4474 14.872 17.593 14.5054 17.593 14.0746C17.593 13.6163 17.4295 13.2498 17.0747 12.938C16.6933 12.5992 16.2934 12.4801 15.5211 12.4801H13.3857V18.8493H15.3758C15.721 18.8493 15.9846 18.8399 16.1846 18.8312C17.2929 18.776 17.8381 17.9512 17.8381 17.0715Z" fill="#122657"/>
<path d="M22.9643 16.8424C22.9643 15.8982 22.4012 15.2293 21.3652 14.9453L20.6018 14.7342C20.0749 14.5877 19.9021 14.4228 19.9021 14.093C19.9021 13.6622 20.2656 13.3598 20.7835 13.3598C21.2561 13.3598 21.6832 13.4973 22.2556 13.8455L22.8555 12.929C22.301 12.5257 21.5197 12.2875 20.7474 12.2875C19.4116 12.2875 18.4847 13.0939 18.4847 14.2579C18.4847 14.6152 18.5756 14.9453 18.7481 15.2293C18.9755 15.6142 19.3662 15.8617 19.9933 16.036L20.6927 16.2283C21.2561 16.3839 21.5197 16.6408 21.5197 17.0532C21.5197 17.6211 21.138 17.9238 20.4111 17.9238C19.7751 17.9238 19.2664 17.7221 18.6757 17.4104L18.2032 18.4092C18.8392 18.7761 19.6388 18.9868 20.3564 18.9868C21.9283 18.9868 22.9643 18.1345 22.9643 16.8424Z" fill="#122657"/>
<path d="M33.9863 18.1802C33.9863 17.7404 33.6231 17.3831 33.1775 17.3831C32.7414 17.3831 32.3872 17.7404 32.3872 18.1802C32.3872 18.6294 32.7414 18.996 33.1864 18.996C33.6231 18.996 33.9863 18.6294 33.9863 18.1802Z" fill="#122657"/>
<path d="M27.6654 18.4991C27.3181 18.7653 26.7995 18.9686 26.0636 18.9686C25.1002 18.9686 24.3912 18.6752 24.0371 18.1163C23.8281 17.7865 23.7645 17.5296 23.7645 16.9155V12.48H25.0641V16.6683C25.0641 17.0621 25.1002 17.2915 25.1729 17.4286C25.3184 17.7129 25.6185 17.8688 26.0361 17.8688C26.5905 17.8688 26.9447 17.5939 26.9994 17.1263C27.0177 16.9888 27.0177 16.8971 27.0177 16.5583V12.48H28.3077H28.3438V16.6683C28.3438 17.0621 28.3803 17.2915 28.4532 17.4286C28.5985 17.7129 28.8983 17.8688 29.3162 17.8688C29.8703 17.8688 30.2248 17.5939 30.2795 17.1263C30.2974 16.9888 30.2974 16.8971 30.2974 16.5583V12.48H31.5878V16.769C31.5878 17.3741 31.5788 17.4932 31.4879 17.7681C31.3241 18.2719 30.7063 18.9686 29.3433 18.9686C28.6319 18.9686 28.0589 18.8087 27.6654 18.4991Z" fill="#122657"/>
</g>
<defs>
<linearGradient id="paint0_linear_7827_48908" x1="5.59682" y1="9.89116" x2="12.7459" y2="6.58596" gradientUnits="userSpaceOnUse">
<stop stop-color="#A7AFCC"/>
<stop offset="1" stop-color="#F6F8FA"/>
</linearGradient>
<linearGradient id="paint1_linear_7827_48908" x1="5.59674" y1="17.3137" x2="12.7459" y2="14.0085" gradientUnits="userSpaceOnUse">
<stop stop-color="#2056AE"/>
<stop offset="1" stop-color="#66CEF6"/>
</linearGradient>
<linearGradient id="paint2_linear_7827_48908" x1="12.9559" y1="9.89116" x2="20.1049" y2="6.586" gradientUnits="userSpaceOnUse">
<stop stop-color="#A31C5D"/>
<stop offset="1" stop-color="#ED0D58"/>
</linearGradient>
<clipPath id="clip0_7827_48908">
<rect width="28" height="14" fill="white" transform="translate(6 5)"/>
</clipPath>
</defs>
</svg>
