<svg width="40" height="24" viewBox="0 0 40 24" fill="none" xmlns="http://www.w3.org/2000/svg">
<rect x="0.5" y="0.5" width="39" height="23" rx="3.5" fill="white"/>
<rect x="0.5" y="0.5" width="39" height="23" rx="3.5" stroke="#DBDCE0"/>
<path d="M34.6527 13.881V9.38095H35.4163V13.881H34.6527ZM32.7845 12.0128V11.2491H37.2845V12.0128H32.7845Z" fill="#6D7184"/>
<path d="M8.58721 9.58832H6.20578V13.9118H8.58721V9.58832Z" fill="#FF5A00"/>
<path d="M6.3643 11.75C6.3643 10.8716 6.77295 10.092 7.40001 9.58827C6.93852 9.2216 6.35637 9 5.72138 9C4.21714 9 3 10.2299 3 11.75C3 13.2701 4.21714 14.5 5.72138 14.5C6.35637 14.5 6.93852 14.2784 7.40001 13.9117C6.77207 13.4151 6.3643 12.6284 6.3643 11.75Z" fill="#EB001B"/>
<path d="M11.8 11.75C11.8 13.2701 10.5829 14.5 9.07862 14.5C8.44363 14.5 7.86148 14.2784 7.39999 13.9117C8.03498 13.4071 8.4357 12.6284 8.4357 11.75C8.4357 10.8716 8.02706 10.092 7.39999 9.58827C7.8606 9.2216 8.44275 9 9.07774 9C10.5829 9 11.8 10.2379 11.8 11.75Z" fill="#F79E1B"/>
<path d="M24.3739 9C23.1664 9 22.0872 9.6259 22.0872 10.782C22.0872 12.108 24.0011 12.1996 24.0011 12.8659C24.0011 13.1464 23.6797 13.3975 23.1304 13.3975C22.3512 13.3975 21.7688 13.0466 21.7688 13.0466L21.5196 14.2135C21.5196 14.2135 22.1905 14.5099 23.0812 14.5099C24.4015 14.5099 25.4405 13.8533 25.4405 12.6773C25.4405 11.276 23.5186 11.1872 23.5186 10.5689C23.5186 10.3492 23.7825 10.1085 24.33 10.1085C24.9478 10.1085 25.4518 10.3636 25.4518 10.3636L25.6957 9.23678C25.6957 9.23678 25.1472 9 24.3738 9H24.3739ZM13.3254 9.08511L13.2961 9.25516C13.2961 9.25516 13.8041 9.3481 14.2617 9.53364C14.851 9.74624 14.8928 9.87016 14.9921 10.2545L16.0733 14.422H17.5228L19.7558 9.08511H18.3097L16.8749 12.7137L16.2894 9.63781C16.2358 9.2858 15.9637 9.08494 15.6309 9.08494H13.3255L13.3254 9.08511ZM20.3374 9.08511L19.203 14.422H20.582L21.7123 9.08511H20.3374ZM28.0285 9.08511C27.696 9.08511 27.5198 9.26316 27.3906 9.57415L25.3702 14.422H26.8163L27.096 13.614H28.8578L29.0278 14.422H30.3038L29.1908 9.08511H28.0285ZM28.2166 10.527L28.6453 12.5297H27.497L28.2168 10.527H28.2166Z" fill="#1434CB"/>
</svg>
