<svg width="40" height="24" viewBox="0 0 40 24" fill="none" xmlns="http://www.w3.org/2000/svg">
<rect x="0.5" y="0.5" width="39" height="23" rx="3.5" fill="white"/>
<rect x="0.5" y="0.5" width="39" height="23" rx="3.5" stroke="#DBDCE0"/>
<path fill-rule="evenodd" clip-rule="evenodd" d="M10.8333 7.33333C10.8333 6.52792 11.4862 5.875 12.2916 5.875H27.7361C28.5415 5.875 29.1944 6.52792 29.1944 7.33333V16.6667C29.1944 17.4721 28.5415 18.125 27.7361 18.125H12.2916C11.4862 18.125 10.8333 17.4721 10.8333 16.6667V7.33333ZM12.2916 7.125C12.1766 7.125 12.0833 7.21827 12.0833 7.33333V16.6667C12.0833 16.7817 12.1766 16.875 12.2916 16.875H27.7361C27.8512 16.875 27.9444 16.7817 27.9444 16.6667V7.33333C27.9444 7.21827 27.8511 7.125 27.7361 7.125H12.2916ZM13.5 14.8333C13.5 14.4882 13.7798 14.2083 14.125 14.2083H15.3472C15.6924 14.2083 15.9722 14.4882 15.9722 14.8333C15.9722 15.1785 15.6924 15.4583 15.3472 15.4583H14.125C13.7798 15.4583 13.5 15.1785 13.5 14.8333ZM24.6805 8.54166C24.3354 8.54166 24.0555 8.82149 24.0555 9.16666C24.0555 9.51184 24.3354 9.79166 24.6805 9.79166H25.9028C26.2479 9.79166 26.5278 9.51184 26.5278 9.16666C26.5278 8.82149 26.2479 8.54166 25.9028 8.54166H24.6805ZM20.2528 11.4225L20.2539 11.4229C20.6223 11.5762 21.042 11.7863 21.3787 12.0742C21.7172 12.3637 22.0383 12.7923 22.0383 13.3689C22.0383 13.3878 22.0374 13.4068 22.0357 13.4256C21.9612 14.2431 21.3859 14.8957 20.6389 15.1059V15.6667C20.6389 16.0118 20.359 16.2917 20.0139 16.2917C19.6687 16.2917 19.3889 16.0118 19.3889 15.6667V15.1059C18.6418 14.8957 18.0665 14.2431 17.992 13.4256C17.9607 13.0819 18.2139 12.7778 18.5577 12.7465C18.9015 12.7151 19.2055 12.9684 19.2368 13.3122C19.2703 13.6796 19.5919 13.9522 19.9593 13.9257C19.9773 13.9241 19.9955 13.9233 20.0139 13.9233C20.0322 13.9233 20.0504 13.9241 20.0684 13.9257C20.4247 13.9514 20.7379 13.6958 20.7871 13.3452C20.7796 13.2737 20.7352 13.1686 20.5664 13.0243C20.376 12.8615 20.096 12.7111 19.7738 12.5771C19.4054 12.4238 18.9857 12.2137 18.649 11.9258C18.3105 11.6363 17.9894 11.2077 17.9894 10.6311C17.9894 10.6122 17.9903 10.5932 17.992 10.5744C18.0665 9.75687 18.6418 9.10432 19.3889 8.89407V8.33333C19.3889 7.98816 19.6687 7.70833 20.0139 7.70833C20.359 7.70833 20.6389 7.98816 20.6389 8.33333V8.89407C21.3859 9.10432 21.9612 9.75687 22.0357 10.5744C22.0671 10.9181 21.8138 11.2222 21.47 11.2535C21.1263 11.2849 20.8222 11.0316 20.7909 10.6878C20.7574 10.3203 20.4358 10.0478 20.0683 10.0743C20.0504 10.0759 20.0322 10.0767 20.0139 10.0767C19.9955 10.0767 19.9774 10.0759 19.9594 10.0743C19.6031 10.0486 19.2898 10.3041 19.2407 10.6548C19.2481 10.7263 19.2925 10.8314 19.4614 10.9757C19.6516 11.1384 19.9311 11.2886 20.2528 11.4225Z" fill="#9295A3"/>
</svg>
