<svg width="40" height="24" viewBox="0 0 40 24" fill="none" xmlns="http://www.w3.org/2000/svg">
<rect x="0.5" y="0.5" width="39" height="23" rx="3.5" fill="white"/>
<rect x="0.5" y="0.5" width="39" height="23" rx="3.5" stroke="#DBDCE0"/>
<path d="M21.828 19.9999C26.1998 20.0208 30.1901 16.4335 30.1901 12.0695C30.1901 7.29712 26.1998 3.99841 21.828 4H18.0656C13.6415 3.99841 10 7.29811 10 12.0695C10 16.4345 13.6415 20.0209 18.0656 19.9999H21.828Z" fill="#0079BE"/>
<path d="M18.0834 4.66125C14.0408 4.66252 10.7649 7.94028 10.7639 11.9857C10.7649 16.0304 14.0407 19.3078 18.0834 19.3091C22.127 19.3078 25.4036 16.0304 25.4041 11.9857C25.4035 7.94028 22.127 4.66252 18.0834 4.66125ZM13.4438 11.9857C13.4476 10.0089 14.6818 8.32317 16.4223 7.6533V16.3171C14.6818 15.6476 13.4476 13.9628 13.4438 11.9857ZM19.7439 16.319V7.65302C21.485 8.32127 22.7211 10.0079 22.7243 11.9857C22.7211 13.9641 21.485 15.6494 19.7439 16.319Z" fill="white"/>
<path d="M21.828 19.9999C26.1998 20.0208 30.1901 16.4335 30.1901 12.0695C30.1901 7.29712 26.1998 3.99841 21.828 4H18.0656C13.6415 3.99841 10 7.29811 10 12.0695C10 16.4345 13.6415 20.0209 18.0656 19.9999H21.828Z" fill="#0079BE"/>
<path d="M18.0834 4.66125C14.0408 4.66252 10.7649 7.94028 10.7639 11.9857C10.7649 16.0304 14.0407 19.3078 18.0834 19.3091C22.127 19.3078 25.4036 16.0304 25.4041 11.9857C25.4035 7.94028 22.127 4.66252 18.0834 4.66125ZM13.4438 11.9857C13.4476 10.0089 14.6818 8.32317 16.4223 7.6533V16.3171C14.6818 15.6476 13.4476 13.9628 13.4438 11.9857ZM19.7439 16.319V7.65302C21.485 8.32127 22.7211 10.0079 22.7243 11.9857C22.7211 13.9641 21.485 15.6494 19.7439 16.319Z" fill="white"/>
</svg>
