<svg width="40" height="24" viewBox="0 0 40 24" fill="none" xmlns="http://www.w3.org/2000/svg">
<rect x="0.5" y="0.5" width="39" height="23" rx="3.5" fill="white"/>
<rect x="0.5" y="0.5" width="39" height="23" rx="3.5" stroke="#DBDCE0"/>
<path d="M6.95714 9.9422H6.50802V10.0712H6.86158L7.74015 13.9516H3.20465L4.08322 10.0712H4.43673V9.9422H3.98753L3 14.1244H7.9448L6.95714 9.9422Z" fill="#1F3A6A"/>
<path d="M6.33765 8.24961H4.60711C4.50176 8.24961 4.41602 8.34169 4.41602 8.45469V10.2775H4.57673V8.45469C4.57673 8.43713 4.59064 8.42219 4.60711 8.42219H4.95508V9.74656H4.63201L5.09494 10.2774H5.84977L6.31271 9.74656H5.98961V8.42219H6.33765C6.35423 8.42219 6.36814 8.43713 6.36814 8.45469V10.2775H6.52862V8.45469C6.52862 8.34169 6.443 8.24961 6.33765 8.24961Z" fill="#5DC4E9"/>
<path d="M5.10876 12.529H5.83598C5.88435 12.529 5.9216 12.4866 5.91878 12.4348L5.89093 11.9231C5.88811 11.8712 5.84623 11.8288 5.79786 11.8288H5.14688C5.09852 11.8288 5.05664 11.8712 5.05381 11.9231L5.02597 12.4348C5.02315 12.4866 5.0604 12.529 5.10876 12.529Z" fill="#1F3A6A"/>
<path d="M4.74579 11.8288H4.08891C4.04054 11.8288 3.99319 11.8705 3.98366 11.9214L3.88713 12.4364C3.87759 12.4874 3.90935 12.529 3.95772 12.529H4.68997C4.73834 12.529 4.78128 12.4867 4.7854 12.4349L4.82622 11.9229C4.83034 11.8712 4.79413 11.8288 4.74579 11.8288Z" fill="#1F3A6A"/>
<path d="M5.13808 11.6254H5.80666C5.84533 11.6254 5.87516 11.5914 5.8729 11.55L5.85062 11.1406C5.84836 11.0991 5.81487 11.0652 5.77619 11.0652H5.16857C5.12987 11.0652 5.09638 11.0991 5.09411 11.1406L5.07184 11.55C5.06957 11.5914 5.0994 11.6254 5.13808 11.6254Z" fill="#1F3A6A"/>
<path d="M4.82741 11.0652H4.21304C4.17437 11.0652 4.13648 11.0985 4.12885 11.1393L4.05165 11.5513C4.04402 11.592 4.06942 11.6254 4.1081 11.6254H4.78275C4.82146 11.6254 4.85581 11.5915 4.85909 11.5501L4.89174 11.1405C4.89505 11.0991 4.86608 11.0652 4.82741 11.0652Z" fill="#1F3A6A"/>
<path d="M6.83494 11.6254C6.87362 11.6254 6.899 11.592 6.89134 11.5513L6.81376 11.1392C6.80608 11.0985 6.76816 11.0652 6.72946 11.0652H6.11739C6.07871 11.0652 6.04975 11.0991 6.05305 11.1405L6.08568 11.5501C6.08898 11.5915 6.12334 11.6254 6.16202 11.6254H6.83494Z" fill="#1F3A6A"/>
<path d="M5.16727 10.886H5.77752C5.81136 10.886 5.83745 10.8563 5.83547 10.82L5.81828 10.5039C5.8163 10.4676 5.787 10.4379 5.75313 10.4379H5.19163C5.15779 10.4379 5.12849 10.4676 5.12651 10.5039L5.1093 10.82C5.10734 10.8563 5.13343 10.886 5.16727 10.886Z" fill="#1F3A6A"/>
<path d="M6.7059 10.886C6.73974 10.886 6.76194 10.8568 6.75525 10.8212L6.69529 10.5027C6.68858 10.4671 6.65539 10.4379 6.62155 10.4379H6.05545C6.02158 10.4379 5.99625 10.4676 5.99912 10.5038L6.02432 10.8201C6.02722 10.8563 6.05728 10.886 6.09113 10.886H6.7059Z" fill="#1F3A6A"/>
<path d="M4.88934 10.4379H4.32044C4.2866 10.4379 4.25344 10.4671 4.24675 10.5027L4.18709 10.8212C4.18043 10.8568 4.20268 10.886 4.23653 10.886H4.85366C4.88751 10.886 4.91756 10.8563 4.92046 10.8201L4.94566 10.5038C4.94854 10.4676 4.92321 10.4379 4.88934 10.4379Z" fill="#1F3A6A"/>
<path d="M6.98608 12.529C7.03442 12.529 7.06615 12.4874 7.05657 12.4365L6.95958 11.9214C6.95002 11.8705 6.90262 11.8288 6.85425 11.8288H6.19898C6.15061 11.8288 6.11443 11.8712 6.11854 11.9229L6.15936 12.4349C6.16348 12.4867 6.20643 12.529 6.25479 12.529H6.98608Z" fill="#1F3A6A"/>
<path d="M5.82875 12.761H5.11603C5.05801 12.761 5.00776 12.8119 5.00438 12.8741L4.96905 13.5231C4.96565 13.5853 5.01038 13.6362 5.06841 13.6362H5.87638C5.93441 13.6362 5.97914 13.5853 5.97573 13.5231L5.94041 12.8741C5.93703 12.8119 5.88678 12.761 5.82875 12.761Z" fill="#1F3A6A"/>
<path d="M4.65075 12.761H3.93319C3.87517 12.761 3.81833 12.811 3.80689 12.8721L3.68452 13.5252C3.67308 13.5863 3.7112 13.6362 3.76923 13.6362H4.58102C4.63905 13.6362 4.69057 13.5854 4.6955 13.5233L4.74727 12.8739C4.75221 12.8118 4.70878 12.761 4.65075 12.761Z" fill="#1F3A6A"/>
<path d="M7.13714 12.872C7.12567 12.8109 7.06876 12.761 7.01073 12.761H6.29399C6.23596 12.761 6.19253 12.8118 6.19746 12.8739L6.24924 13.5233C6.25417 13.5854 6.30569 13.6362 6.36372 13.6362H7.17551C7.23354 13.6362 7.27163 13.5863 7.26011 13.5252L7.13714 12.872Z" fill="#1F3A6A"/>
<path d="M16.1887 9.94291H15.5039V14.1244H16.1887V9.94291ZM13.9635 12.0612C13.9635 12.1662 13.9635 12.5807 13.7385 12.9588C13.5056 13.3532 13.1561 13.5413 12.8507 13.5413C12.5887 13.5413 12.3196 13.4195 12.1363 13.2348C11.8619 12.9429 11.7819 12.4748 11.7819 12.0279C11.7868 11.3968 11.9562 11.0418 12.234 10.7686C12.3408 10.6533 12.5589 10.5014 12.844 10.5014C13.0392 10.5014 13.286 10.5817 13.4899 10.7583C13.9859 11.2034 13.9635 12.0207 13.9635 12.0612ZM14.3127 15.2948C14.6028 14.8834 14.6257 14.4564 14.6466 13.5802L14.6379 9.94291H13.9859V10.5889C13.9635 10.5503 13.8377 10.3391 13.6715 10.1949C13.4989 10.032 13.1778 9.85351 12.7404 9.86099C12.3495 9.86099 12.0414 10.0217 11.8898 10.1288C11.6368 10.3083 11.5043 10.4926 11.4321 10.6082C11.127 11.0595 11.046 11.6012 11.046 12.0612C11.046 12.1764 11.046 12.572 11.1615 12.9429C11.1913 13.0479 11.3222 13.5158 11.7067 13.8636C11.9199 14.0502 12.2459 14.2365 12.7404 14.2112C13.0166 14.196 13.3953 14.0988 13.6715 13.8484C13.7594 13.7671 13.8113 13.7123 13.9337 13.5332L13.9282 14.1069C13.9128 14.2932 13.9038 14.4794 13.8377 14.6638C13.8028 14.7784 13.7431 14.8834 13.6631 14.9809C13.476 15.2132 13.2367 15.3341 12.7776 15.3515C12.3265 15.3515 11.9562 15.2369 11.7868 15.174C11.5997 15.1008 11.4828 15.0211 11.4022 14.9728L11.3297 15.701C11.4393 15.7483 11.5199 15.7804 11.6368 15.8234C11.8239 15.8872 12.234 16 12.7335 16C13.2718 16 13.614 15.8679 13.8467 15.7324C14.1036 15.5711 14.2254 15.4253 14.3127 15.2948ZM15.4581 8.94807H16.2079V8.12267H15.4581V8.94807ZM18.7318 10.5636C18.9206 10.5636 19.0169 10.5995 19.2037 10.6636V9.9292C19.1692 9.9292 18.9592 9.89431 18.7846 9.89431C18.5 9.89431 18.1433 9.96752 17.8675 10.3232C17.8242 10.3799 17.7573 10.4926 17.6772 10.64L17.6421 9.94291H16.9872C17.0081 10.4671 17.0258 10.8325 17.0258 11.3489C17.0258 11.9547 17.015 12.382 17.015 12.9819V14.1237H17.7222V12.0771C17.7433 11.6806 17.7648 11.1558 18.1433 10.7991C18.3965 10.5636 18.6448 10.5636 18.7318 10.5636ZM22.3112 11.9933C22.3112 12.4502 22.1789 13.1195 21.6563 13.4363C21.5516 13.4927 21.3717 13.5827 21.1162 13.5827C21.0588 13.5827 20.8473 13.5746 20.6449 13.4693C20.6011 13.4441 20.5576 13.4189 20.4541 13.3373C20.3479 13.2516 20.2011 13.0791 20.0842 12.7878C19.9827 12.5315 19.9482 12.2559 19.9549 11.9793C19.9674 11.3996 20.1921 10.9876 20.4268 10.7758C20.5805 10.6378 20.8265 10.4767 21.1916 10.4767C21.7943 10.4845 22.0614 10.929 22.1937 11.2688C22.2363 11.3912 22.3112 11.6635 22.3112 11.9933ZM22.4634 13.6637C22.9136 13.1766 23.0429 12.5141 23.0363 11.9793C23.0151 10.9521 22.5142 10.3391 22.04 10.0709C21.8747 9.98338 21.5901 9.87063 21.1916 9.87063C20.3183 9.87063 19.7574 10.3565 19.4888 10.8561C19.298 11.2127 19.2283 11.6248 19.2179 12.0459C19.2107 12.8853 19.4888 13.3796 19.822 13.7275C19.9027 13.7998 19.9827 13.8665 20.07 13.9222C20.2882 14.0757 20.6011 14.2035 21.1162 14.2035C21.5112 14.2035 21.7714 14.1237 21.939 14.0402C22.1139 13.9605 22.3042 13.8325 22.4634 13.6637Z" fill="#1F3A6A"/>
<path d="M25.4854 14.1873C25.9524 14.1873 26.205 14.0752 26.4231 13.9702L26.3709 13.2981C26.2363 13.3616 25.9289 13.5233 25.5588 13.5233C25.5063 13.5233 25.2653 13.5233 25.0649 13.4092C24.4743 13.0959 24.3293 12.4568 24.3293 11.9812C24.3293 11.2785 24.6576 10.8724 24.9892 10.6777C25.2896 10.497 25.5588 10.5073 25.667 10.5073C25.9431 10.5223 26.1612 10.6276 26.2717 10.6861L26.3079 10.0061C26.1841 9.97316 25.8944 9.87005 25.5588 9.86197C24.7797 9.83703 24.2928 10.2255 24.0076 10.6276C23.6825 11.0835 23.5955 11.6398 23.6094 12.1036C23.6373 13.2149 24.2278 13.8145 24.7452 14.0397C24.8827 14.1063 25.1289 14.1814 25.4854 14.1873ZM29.3895 12.2397C29.3895 12.5157 29.3666 12.6764 29.3303 12.8047C29.3161 12.8604 29.2715 12.9994 29.156 13.1619C28.9301 13.4921 28.6331 13.6048 28.3544 13.6048C28.0341 13.6048 27.6081 13.4258 27.6081 12.9349C27.6081 12.4474 28.006 12.2397 28.3544 12.1481C28.4594 12.1251 28.625 12.1036 28.8663 12.1036C29.0406 12.1036 29.2152 12.1092 29.3895 12.1251V12.2397ZM29.4304 14.1231H30.0253V11.424C30.0253 11.0061 29.9348 10.6528 29.8304 10.4839C29.6274 10.1189 29.1836 9.86197 28.5722 9.86197C27.83 9.86197 27.454 10.1477 27.3511 10.2152V10.8724C27.5077 10.7724 27.9573 10.4762 28.4411 10.4762C28.9136 10.4762 29.2047 10.768 29.3022 11.0412C29.3582 11.2122 29.3724 11.4182 29.3724 11.5928C29.1923 11.5831 29.0003 11.5753 28.8132 11.5753C28.4292 11.5753 27.9695 11.5928 27.5852 11.7949C27.2867 11.9485 26.878 12.2453 26.878 12.9153C26.878 13.3736 27.077 13.7095 27.2711 13.8861C27.4895 14.0848 27.7824 14.1621 28.08 14.1814C28.524 14.1954 28.8254 14.0496 29.018 13.9035C29.1836 13.768 29.2848 13.6379 29.4304 13.4594V14.1231ZM32.4985 10.5631C32.6876 10.5631 32.783 10.5989 32.9706 10.663V9.93206C32.9355 9.92876 32.7256 9.89375 32.5504 9.89375C32.2682 9.89375 31.9103 9.96691 31.6353 10.3226C31.5886 10.3793 31.5257 10.4921 31.4433 10.6394L31.4085 9.9423H30.7516C30.7745 10.4665 30.7864 10.8319 30.7864 11.3483C30.7864 11.9541 30.7832 12.3814 30.7832 12.9813V14.1231H31.4886V12.0765C31.5132 11.68 31.5303 11.1552 31.9103 10.7985C32.1632 10.5631 32.4118 10.5631 32.4985 10.5631ZM36.2851 12.0684C36.2851 12.1431 36.2798 12.3948 36.205 12.6512C36.0232 13.242 35.6113 13.5647 35.1519 13.5647C34.7812 13.5647 34.4108 13.347 34.2049 12.876C34.0909 12.6125 34.0462 12.311 34.0613 12.0201C34.0613 11.9155 34.0665 11.6722 34.1625 11.3754C34.416 10.5986 34.9909 10.5226 35.1814 10.5226C35.6237 10.5226 36.0298 10.8415 36.205 11.4193C36.2346 11.5423 36.2937 11.7678 36.2851 12.0684ZM36.9681 13.2342C36.9472 12.426 36.9472 11.8513 36.9472 11.039C36.9472 10.0258 36.9629 9.01196 36.9681 8H36.2729V10.5073C36.1721 10.3649 36.1351 10.3226 36.053 10.2413C35.8639 10.0641 35.5518 9.86197 35.0936 9.86197C34.9593 9.86197 34.3444 9.87068 33.8641 10.4351C33.2826 11.1056 33.3307 12.0126 33.3307 12.1481C33.34 12.4394 33.3751 12.7639 33.4868 13.0648C33.6738 13.5821 34.1167 14.2203 35.0347 14.2203C35.1336 14.2203 35.669 14.2203 36.0739 13.7896C36.1479 13.7254 36.198 13.6538 36.3146 13.4846L36.3448 14.1231H37C36.982 13.7896 36.9791 13.5647 36.9681 13.2342Z" fill="#1F3A6A"/>
</svg>
