<svg width="40" height="24" viewBox="0 0 40 24" fill="none" xmlns="http://www.w3.org/2000/svg">
<rect x="0.5" y="0.5" width="39" height="23" rx="3.5" fill="#FFF48D"/>
<rect x="0.5" y="0.5" width="39" height="23" rx="3.5" stroke="#DBDCE0"/>
<g clip-path="url(#clip0_10388_818)">
<path d="M37.025 5H2.975C2.43652 5 2 5.44772 2 6V18C2 18.5523 2.43652 19 2.975 19H37.025C37.5635 19 38 18.5523 38 18V6C38 5.44772 37.5635 5 37.025 5Z" fill="#FFF48D"/>
<path d="M2.82649 6.75923V17.2515C2.82649 17.7538 3.22924 18.1646 3.72124 18.1646H9.86299C14.5062 18.1646 16.5185 15.5115 16.5185 11.9915C16.5185 8.47154 14.5055 5.84615 9.86225 5.84615H3.72049C3.22849 5.84615 2.82574 6.25692 2.82574 6.75923H2.82649Z" fill="white"/>
<path d="M6.93726 8.42154V16.1746H10.2425C13.244 16.1746 14.5453 14.4438 14.5453 11.9969C14.5453 9.55 13.2433 7.83769 10.2425 7.83769H7.50951C7.19226 7.83769 6.93726 8.10231 6.93726 8.42231V8.42154Z" fill="#CC0066"/>
<path fill-rule="evenodd" clip-rule="evenodd" d="M4.52147 17.3292H9.86222C13.6152 17.3292 15.686 15.4346 15.686 11.9961C15.686 10.0146 14.93 6.68615 9.86222 6.68615H4.52147C4.04747 6.68615 3.66272 7.07846 3.66272 7.56307V16.4531C3.66272 16.9369 4.04747 17.33 4.52147 17.33V17.3292ZM3.94847 7.56307C3.94847 7.23923 4.20347 6.97846 4.52072 6.97846H9.86147C11.9277 6.97846 15.3987 7.63153 15.3987 11.9961C15.3987 15.2469 13.4307 17.0369 9.86147 17.0369H4.52147C4.20422 17.0369 3.94922 16.7769 3.94922 16.4523V7.56307H3.94847Z" fill="#232323"/>
<path fill-rule="evenodd" clip-rule="evenodd" d="M8.56325 10.8692C8.46275 10.8323 8.35775 10.8138 8.24375 10.8138V10.8092H7.487V12.6815H8.25275C8.3885 12.6815 8.50625 12.6538 8.6075 12.6077C8.708 12.5569 8.79125 12.4923 8.85725 12.4092C8.92325 12.3262 8.97125 12.2246 9.00575 12.1092C9.0365 11.9938 9.05375 11.8692 9.05375 11.7308C9.05375 11.5738 9.032 11.44 8.99225 11.3246C8.94875 11.2138 8.89175 11.1169 8.822 11.0385C8.74775 10.9646 8.6645 10.9046 8.564 10.8677L8.56325 10.8692ZM8.384 12.3131C8.327 12.3315 8.2745 12.3408 8.2175 12.3408V12.3454H7.87175V11.1646H8.1515C8.2475 11.1646 8.32625 11.1785 8.39225 11.2062C8.45825 11.2338 8.51075 11.28 8.54975 11.3308C8.58875 11.3815 8.6195 11.4508 8.6375 11.5246C8.65475 11.5985 8.66375 11.6862 8.66375 11.7785C8.66375 11.8846 8.65025 11.9677 8.62475 12.0415C8.5985 12.1154 8.56325 12.1708 8.52425 12.2169C8.48525 12.2631 8.4365 12.2954 8.384 12.3138V12.3131Z" fill="white"/>
<path d="M10.6333 10.8146V11.1608H9.6965V11.5623H10.5583V11.8808H9.6965V12.3377H10.655V12.6838H9.30725V10.8115H10.6333V10.8162V10.8146Z" fill="white"/>
<path fill-rule="evenodd" clip-rule="evenodd" d="M12.6373 12.6869L11.972 10.8146H11.5655L10.8958 12.6869H11.2895L11.4298 12.2715H12.095L12.2308 12.6869H12.638H12.6373ZM11.7703 11.2754L11.9938 11.9623H11.5348L11.7665 11.2754H11.771H11.7703Z" fill="white"/>
<path d="M13.2718 10.8138V12.3408H14.138V12.6869H12.8825V10.8146H13.2718V10.8138Z" fill="white"/>
<path d="M5.40127 12.7146C5.87527 12.7146 6.25927 12.3208 6.25927 11.8338C6.25927 11.3469 5.87527 10.9531 5.40127 10.9531C4.92727 10.9531 4.54327 11.3469 4.54327 11.8338C4.54327 12.3208 4.92727 12.7146 5.40127 12.7146Z" fill="#232323"/>
<path d="M5.91197 16.2369C5.24747 16.2369 4.71497 15.6485 4.71497 14.9254V13.9015C4.71497 13.54 4.98122 13.2431 5.31572 13.2431C5.65022 13.2431 5.91647 13.5354 5.91647 13.9015V16.2369H5.91197Z" fill="#232323"/>
<path d="M32.42 12.0477C32.42 11.0185 33.134 10.0808 34.367 10.0808C35.6 10.0808 36.3193 11.0192 36.3193 12.0477C36.3193 13.0761 35.6053 14.0146 34.367 14.0146C33.134 14.0146 32.42 13.0761 32.42 12.0477ZM35.2355 12.0477C35.2355 11.5515 34.9168 11.0938 34.367 11.0938C33.8173 11.0938 33.4985 11.5523 33.4985 12.0477C33.4985 12.5431 33.8225 13.0023 34.367 13.0023C34.9115 13.0023 35.2355 12.5438 35.2355 12.0477Z" fill="#1D1C1C"/>
<path d="M31.6617 12.7785C32.0727 12.5385 32.3195 12.08 32.3195 11.5738C32.3195 10.8223 31.79 10.1823 30.968 10.1823H29.2422V13.9138H30.311V12.96H30.5112L31.1225 13.9138H32.381L31.6617 12.7785ZM30.7527 12.1008H30.311V11.0454H30.758C31.046 11.0454 31.2305 11.2854 31.2305 11.5731C31.2305 11.8608 31.04 12.1008 30.7527 12.1008Z" fill="#1D1C1C"/>
<path d="M24.3635 10.1777L23.7223 12.4015L23.0968 10.1777H22.2455L21.6148 12.4015L20.9788 10.1777H19.8508L21.143 13.9023H22.0708L22.6708 11.8746L23.2655 13.9023H24.1985L25.4908 10.1777H24.3628H24.3635Z" fill="#1D1C1C"/>
<path d="M27.1085 12.9931H27.1063C26.7065 12.9931 26.426 12.7454 26.306 12.4177H29.0218C29.0435 12.2946 29.0548 12.1685 29.0548 12.0408C29.0548 11.0146 28.343 10.0785 27.1085 10.0777V11.0885C27.5105 11.0892 27.788 11.3369 27.9073 11.6638H25.1953C25.1735 11.7869 25.1623 11.9131 25.1623 12.0408C25.1623 13.0677 25.8748 14.0046 27.1055 14.0046H27.1078V12.9931H27.1085Z" fill="#1D1C1C"/>
<path d="M27.1063 14.0038C27.1483 14.0038 27.1895 14.0023 27.23 14.0008C27.4798 13.9877 27.707 13.9354 27.9095 13.8515C28.112 13.7677 28.2898 13.6515 28.4405 13.5115C28.592 13.3715 28.7165 13.2077 28.8133 13.0269C28.901 12.8623 28.9655 12.6846 29.006 12.4992H27.8743C27.851 12.5485 27.824 12.5962 27.7933 12.64C27.7513 12.7008 27.7018 12.7554 27.6455 12.8023C27.5893 12.85 27.5263 12.89 27.4573 12.9208C27.3883 12.9515 27.3125 12.9731 27.2308 12.9846C27.191 12.99 27.1498 12.9931 27.107 12.9931C26.8528 12.9931 26.6465 12.8923 26.4988 12.7346L25.763 13.4977C26.09 13.8077 26.5438 14.0031 27.1063 14.0031V14.0038Z" fill="url(#paint0_linear_10388_818)"/>
<path d="M27.1063 10.0769C26.0623 10.0769 25.391 10.7508 25.2118 11.5815H26.3398C26.4748 11.2954 26.7403 11.0877 27.1063 11.0877C27.398 11.0877 27.6245 11.2169 27.7723 11.4123L28.5148 10.6423C28.1833 10.2977 27.7063 10.0769 27.107 10.0769H27.1063Z" fill="url(#paint1_linear_10388_818)"/>
<path d="M18.1708 16.1538C18.0883 16.1538 18.0208 16.0846 18.0208 16V8C18.0208 7.91538 18.0883 7.84615 18.1708 7.84615C18.2533 7.84615 18.3208 7.91538 18.3208 8V16C18.3208 16.0846 18.2533 16.1538 18.1708 16.1538Z" fill="#1D1C1C"/>
</g>
<defs>
<linearGradient id="paint0_linear_10388_818" x1="28.454" y1="11.8231" x2="26.7135" y2="13.9007" gradientUnits="userSpaceOnUse">
<stop offset="0.02" stop-color="#1D1C1C" stop-opacity="0"/>
<stop offset="0.68" stop-color="#1D1C1C"/>
</linearGradient>
<linearGradient id="paint1_linear_10388_818" x1="25.508" y1="12.2731" x2="27.2823" y2="10.5634" gradientUnits="userSpaceOnUse">
<stop offset="0.02" stop-color="#1D1C1C" stop-opacity="0"/>
<stop offset="0.68" stop-color="#1D1C1C"/>
</linearGradient>
<clipPath id="clip0_10388_818">
<rect width="36" height="14" fill="white" transform="translate(2 5)"/>
</clipPath>
</defs>
</svg>
