<svg width="40" height="24" viewBox="0 0 40 24" fill="none" xmlns="http://www.w3.org/2000/svg">
<rect x="0.5" y="0.5" width="39" height="23" rx="3.5" fill="white"/>
<rect x="0.5" y="0.5" width="39" height="23" rx="3.5" stroke="#DBDCE0"/>
<path fill-rule="evenodd" clip-rule="evenodd" d="M17.4274 4.48438C17.4274 4.14783 17.1546 3.875 16.818 3.875C16.4815 3.875 16.2087 4.14783 16.2087 4.48438V7.19271C16.2087 7.52926 16.4815 7.80208 16.818 7.80208C17.1546 7.80208 17.4274 7.52926 17.4274 7.19271V4.48438ZM14.097 5.50013L14.1097 5.5H15.1761C15.5127 5.5 15.7855 5.77283 15.7855 6.10938C15.7855 6.44592 15.5127 6.71875 15.1761 6.71875H14.1168C13.8404 6.72598 13.578 6.84186 13.3864 7.04139C13.1936 7.24227 13.0884 7.5115 13.094 7.7899L13.0941 7.80208V9.83334H27.042V7.80208L27.0421 7.7899C27.0477 7.5115 26.9425 7.24227 26.7496 7.04139C26.5581 6.84186 26.2957 6.72598 26.0193 6.71875H24.96C24.6234 6.71875 24.3506 6.44592 24.3506 6.10938C24.3506 5.77283 24.6234 5.5 24.96 5.5H26.0264L26.0391 5.50013C26.6405 5.51266 27.2123 5.76344 27.6288 6.19737C28.0439 6.62971 28.271 7.20861 28.2607 7.80766L28.2607 10.4427L28.2607 17.9528C28.271 18.5518 28.0439 19.1307 27.6288 19.563C27.2123 19.997 26.6405 20.2478 26.0391 20.2603L26.0264 20.2604H14.1097L14.097 20.2603C13.4956 20.2478 12.9238 19.997 12.5072 19.563C12.0922 19.1307 11.8651 18.5518 11.8753 17.9527V10.4434L11.8753 10.4427L11.8753 10.442V7.8077C11.8651 7.20863 12.0922 6.62972 12.5072 6.19737C12.9238 5.76344 13.4956 5.51266 14.097 5.50013ZM13.0941 11.0521V17.9583L13.094 17.9705C13.0884 18.2489 13.1936 18.5181 13.3864 18.719C13.578 18.9186 13.8404 19.0344 14.1168 19.0417H26.0193C26.2956 19.0344 26.5581 18.9186 26.7496 18.719C26.9425 18.5181 27.0477 18.2489 27.0421 17.9705L27.042 17.9583V11.0521H13.0941ZM17.8337 6.10938C17.8337 5.77283 18.1065 5.5 18.443 5.5H21.693C22.0296 5.5 22.3024 5.77283 22.3024 6.10938C22.3024 6.44592 22.0296 6.71875 21.693 6.71875H18.443C18.1065 6.71875 17.8337 6.44592 17.8337 6.10938ZM23.318 3.875C23.6546 3.875 23.9274 4.14783 23.9274 4.48438V7.19271C23.9274 7.52926 23.6546 7.80208 23.318 7.80208C22.9815 7.80208 22.7087 7.52926 22.7087 7.19271V4.48438C22.7087 4.14783 22.9815 3.875 23.318 3.875ZM23.8597 12.8125C23.3736 12.8125 22.9795 13.2066 22.9795 13.6927C22.9795 14.1788 23.3736 14.5729 23.8597 14.5729C24.3458 14.5729 24.7399 14.1788 24.7399 13.6927C24.7399 13.2066 24.3458 12.8125 23.8597 12.8125ZM22.9795 16.9427C22.9795 16.4566 23.3736 16.0625 23.8597 16.0625C24.3458 16.0625 24.7399 16.4566 24.7399 16.9427C24.7399 17.4288 24.3458 17.8229 23.8597 17.8229C23.3736 17.8229 22.9795 17.4288 22.9795 16.9427ZM20.068 16.0625C19.5819 16.0625 19.1878 16.4566 19.1878 16.9427C19.1878 17.4288 19.5819 17.8229 20.068 17.8229C20.5542 17.8229 20.9482 17.4288 20.9482 16.9427C20.9482 16.4566 20.5542 16.0625 20.068 16.0625ZM19.1878 13.6927C19.1878 13.2066 19.5819 12.8125 20.068 12.8125C20.5542 12.8125 20.9482 13.2066 20.9482 13.6927C20.9482 14.1788 20.5542 14.5729 20.068 14.5729C19.5819 14.5729 19.1878 14.1788 19.1878 13.6927ZM16.2764 12.8125C15.7902 12.8125 15.3962 13.2066 15.3962 13.6927C15.3962 14.1788 15.7902 14.5729 16.2764 14.5729C16.7625 14.5729 17.1566 14.1788 17.1566 13.6927C17.1566 13.2066 16.7625 12.8125 16.2764 12.8125ZM15.3962 16.9427C15.3962 16.4566 15.7902 16.0625 16.2764 16.0625C16.7625 16.0625 17.1566 16.4566 17.1566 16.9427C17.1566 17.4288 16.7625 17.8229 16.2764 17.8229C15.7902 17.8229 15.3962 17.4288 15.3962 16.9427Z" fill="#9295A3"/>
</svg>
