<svg width="40" height="24" viewBox="0 0 40 24" fill="none" xmlns="http://www.w3.org/2000/svg">
<rect x="0.5" y="0.5" width="39" height="23" rx="3.5" fill="white"/>
<rect x="0.5" y="0.5" width="39" height="23" rx="3.5" stroke="#DBDCE0"/>
<path d="M17.2708 16.7917H22.7291C22.9062 16.7917 23.0547 16.7314 23.1745 16.6109C23.2942 16.4904 23.3541 16.3411 23.3541 16.163C23.3541 15.9849 23.2942 15.8368 23.1745 15.7187C23.0547 15.6007 22.9062 15.5417 22.7291 15.5417H17.2708C17.0937 15.5417 16.9453 15.6019 16.8255 15.7224C16.7057 15.8429 16.6458 15.9922 16.6458 16.1703C16.6458 16.3484 16.7057 16.4965 16.8255 16.6146C16.9453 16.7326 17.0937 16.7917 17.2708 16.7917ZM17.2708 13.25H22.7291C22.9062 13.25 23.0547 13.1898 23.1745 13.0693C23.2942 12.9488 23.3541 12.7995 23.3541 12.6214C23.3541 12.4432 23.2942 12.2951 23.1745 12.1771C23.0547 12.059 22.9062 12 22.7291 12H17.2708C17.0937 12 16.9453 12.0602 16.8255 12.1807C16.7057 12.3012 16.6458 12.4505 16.6458 12.6286C16.6458 12.8068 16.7057 12.9549 16.8255 13.0729C16.9453 13.191 17.0937 13.25 17.2708 13.25ZM14.5833 20.3333C14.25 20.3333 13.9583 20.2083 13.7083 19.9583C13.4583 19.7083 13.3333 19.4167 13.3333 19.0833V4.91666C13.3333 4.58333 13.4583 4.29166 13.7083 4.04166C13.9583 3.79166 14.25 3.66666 14.5833 3.66666H21.5833C21.7561 3.66666 21.9209 3.70139 22.0775 3.77083C22.2342 3.84028 22.368 3.93055 22.4791 4.04166L26.2916 7.85416C26.4028 7.96528 26.493 8.09915 26.5625 8.25579C26.6319 8.41243 26.6666 8.57716 26.6666 8.75V19.0833C26.6666 19.4167 26.5416 19.7083 26.2916 19.9583C26.0416 20.2083 25.75 20.3333 25.4166 20.3333H14.5833ZM21.4791 8.16666V4.91666H14.5833V19.0833H25.4166V8.79166H22.1041C21.9271 8.79166 21.7786 8.73177 21.6588 8.61198C21.539 8.49219 21.4791 8.34375 21.4791 8.16666Z" fill="#9295A3"/>
</svg>
