<svg width="40" height="24" viewBox="0 0 40 24" fill="none" xmlns="http://www.w3.org/2000/svg">
<rect x="0.5" y="0.5" width="39" height="23" rx="3.5" fill="white"/>
<rect x="0.5" y="0.5" width="39" height="23" rx="3.5" stroke="#DBDCE0"/>
<g clip-path="url(#clip0_5986_42758)">
<path d="M32.8303 17.9167C32.8303 20.1197 31.0364 21.9136 28.8334 21.9136H7.08636V6.08331C7.08636 3.88029 8.88026 2.0864 11.0833 2.0864H32.8303V17.9167Z" fill="white"/>
<path d="M25.7491 13.8568H27.4014C27.4486 13.8568 27.5588 13.8411 27.606 13.8411C27.9207 13.7782 28.1882 13.4949 28.1882 13.1015C28.1882 12.7239 27.9207 12.4406 27.606 12.3619C27.5588 12.3462 27.4644 12.3462 27.4014 12.3462H25.7491V13.8568Z" fill="url(#paint0_linear_5986_42758)"/>
<path d="M27.2126 3.42395C25.639 3.42395 24.3486 4.69856 24.3486 6.28788V9.26197H28.3927C28.4872 9.26197 28.5973 9.26197 28.676 9.2777C29.5887 9.32491 30.2653 9.79699 30.2653 10.6153C30.2653 11.2604 29.809 11.8112 28.9592 11.9213V11.9528C29.8877 12.0157 30.5958 12.535 30.5958 13.3376C30.5958 14.203 29.809 14.7695 28.7704 14.7695H24.3329V20.5918H28.5344C30.108 20.5918 31.3983 19.3172 31.3983 17.7279V3.42395H27.2126Z" fill="url(#paint1_linear_5986_42758)"/>
<path d="M27.9836 10.8041C27.9836 10.4264 27.7161 10.1746 27.4014 10.1274C27.3699 10.1274 27.2913 10.1117 27.2441 10.1117H25.7491V11.4965H27.2441C27.2913 11.4965 27.3857 11.4965 27.4014 11.4807C27.7161 11.4335 27.9836 11.1817 27.9836 10.8041Z" fill="url(#paint2_linear_5986_42758)"/>
<path d="M11.3823 3.42395C9.8087 3.42395 8.51836 4.69856 8.51836 6.28788V13.3533C9.32089 13.7467 10.1549 13.9985 10.9889 13.9985C11.9803 13.9985 12.5153 13.4005 12.5153 12.5822V9.24623H14.9701V12.5665C14.9701 13.8568 14.1675 14.9111 11.4452 14.9111C9.79297 14.9111 8.50262 14.5492 8.50262 14.5492V20.5761H12.7041C14.2777 20.5761 15.568 19.3015 15.568 17.7121V3.42395H11.3823Z" fill="url(#paint3_linear_5986_42758)"/>
<path d="M19.2974 3.42395C17.7238 3.42395 16.4335 4.69856 16.4335 6.28788V10.033C17.1573 9.41932 18.4162 9.02593 20.4461 9.12034C21.5319 9.16755 22.6964 9.46653 22.6964 9.46653V10.6782C22.1141 10.3792 21.4217 10.1117 20.5248 10.0488C18.9827 9.93861 18.0543 10.6939 18.0543 12.0157C18.0543 13.3533 18.9827 14.1086 20.5248 13.9827C21.4217 13.9198 22.1141 13.6365 22.6964 13.3533V14.565C22.6964 14.565 21.5476 14.8639 20.4461 14.9111C18.4162 15.0056 17.1573 14.6122 16.4335 13.9985V20.6075H20.635C22.2085 20.6075 23.4989 19.3329 23.4989 17.7436V3.42395H19.2974Z" fill="url(#paint4_linear_5986_42758)"/>
</g>
<defs>
<linearGradient id="paint0_linear_5986_42758" x1="24.346" y1="13.1034" x2="31.4173" y2="13.1034" gradientUnits="userSpaceOnUse">
<stop stop-color="#007940"/>
<stop offset="0.2285" stop-color="#00873F"/>
<stop offset="0.7433" stop-color="#40A737"/>
<stop offset="1" stop-color="#5CB531"/>
</linearGradient>
<linearGradient id="paint1_linear_5986_42758" x1="24.3458" y1="12.001" x2="31.4176" y2="12.001" gradientUnits="userSpaceOnUse">
<stop stop-color="#007940"/>
<stop offset="0.2285" stop-color="#00873F"/>
<stop offset="0.7433" stop-color="#40A737"/>
<stop offset="1" stop-color="#5CB531"/>
</linearGradient>
<linearGradient id="paint2_linear_5986_42758" x1="24.3458" y1="10.8021" x2="31.4174" y2="10.8021" gradientUnits="userSpaceOnUse">
<stop stop-color="#007940"/>
<stop offset="0.2285" stop-color="#00873F"/>
<stop offset="0.7433" stop-color="#40A737"/>
<stop offset="1" stop-color="#5CB531"/>
</linearGradient>
<linearGradient id="paint3_linear_5986_42758" x1="8.51503" y1="12.001" x2="15.6958" y2="12.001" gradientUnits="userSpaceOnUse">
<stop stop-color="#1F286F"/>
<stop offset="0.4751" stop-color="#004E94"/>
<stop offset="0.8261" stop-color="#0066B1"/>
<stop offset="1" stop-color="#006FBC"/>
</linearGradient>
<linearGradient id="paint4_linear_5986_42758" x1="16.3928" y1="12.001" x2="23.367" y2="12.001" gradientUnits="userSpaceOnUse">
<stop stop-color="#6C2C2F"/>
<stop offset="0.1735" stop-color="#882730"/>
<stop offset="0.5731" stop-color="#BE1833"/>
<stop offset="0.8585" stop-color="#DC0436"/>
<stop offset="1" stop-color="#E60039"/>
</linearGradient>
<clipPath id="clip0_5986_42758">
<rect width="25.9167" height="20" fill="white" transform="translate(7 2)"/>
</clipPath>
</defs>
</svg>
