<svg width="40" height="24" viewBox="0 0 40 24" fill="none" xmlns="http://www.w3.org/2000/svg">
<rect x="0.5" y="0.5" width="39" height="23" rx="3.5" fill="white"/>
<rect x="0.5" y="0.5" width="39" height="23" rx="3.5" stroke="#DBDCE0"/>
<path d="M29.2355 15.7197V15.4866H29.1773L29.1093 15.642L29.0413 15.4866H28.9831V15.7197H29.0219V15.5449L29.0899 15.7003H29.1384L29.2064 15.5449V15.7197H29.2355ZM28.8471 15.7197V15.5255H28.9248V15.4866H28.7306V15.5255H28.8083V15.7197H28.8471Z" fill="#00A2E5"/>
<path d="M22.3317 16.7198H17.0786V7.28171H22.3317V16.7198Z" fill="#7375CF"/>
<path d="M17.4184 12.0008C17.4184 10.0879 18.3118 8.37895 19.71 7.28172C18.6904 6.47579 17.399 6 16.0008 6C12.6897 6 10 8.68967 10 12.0008C10 15.3119 12.6897 18.0016 16.0008 18.0016C17.399 18.0016 18.6904 17.5258 19.71 16.7198C18.3118 15.6226 17.4184 13.9136 17.4184 12.0008Z" fill="#EB001B"/>
<path d="M29.42 12.0008C29.42 15.3119 26.7304 18.0016 23.4192 18.0016C22.021 18.0016 20.7296 17.5258 19.71 16.7198C21.1083 15.6226 22.0016 13.9136 22.0016 12.0008C22.0016 10.0879 21.1083 8.37895 19.71 7.28172C20.7296 6.47579 22.021 6 23.4192 6C26.7304 6 29.42 8.68967 29.42 12.0008Z" fill="#00A2E5"/>
</svg>
