<svg width="40" height="24" viewBox="0 0 40 24" fill="none" xmlns="http://www.w3.org/2000/svg">
<rect x="0.5" y="0.5" width="39" height="23" rx="3.5" fill="white"/>
<rect x="0.5" y="0.5" width="39" height="23" rx="3.5" stroke="#DBDCE0"/>
<path d="M23.3173 7.28345H18.0673V16.7155H23.3173V7.28345Z" fill="#FF5A00"/>
<path d="M18.4167 11.9994C18.4167 10.0831 19.3176 8.38229 20.7 7.28337C19.6826 6.48345 18.3993 6 16.9994 6C13.6832 6 11 8.68323 11 11.9994C11 15.3156 13.6832 17.9988 16.9994 17.9988C18.3993 17.9988 19.6826 17.5154 20.7 16.7155C19.3157 15.6321 18.4167 13.9157 18.4167 11.9994Z" fill="#EB001B"/>
<path d="M30.4 11.9994C30.4 15.3156 27.7167 17.9988 24.4006 17.9988C23.0007 17.9988 21.7173 17.5154 20.7 16.7155C22.0998 15.6146 22.9832 13.9157 22.9832 11.9994C22.9832 10.0831 22.0823 8.38229 20.7 7.28337C21.7154 6.48345 22.9988 6 24.3986 6C27.7167 6 30.4 8.70071 30.4 11.9994Z" fill="#F79E1B"/>
</svg>
