<svg width="50" height="51" viewBox="0 0 50 51" fill="none" xmlns="http://www.w3.org/2000/svg">
<rect y="0.339844" width="50" height="50" fill="white"/>
<path d="M41.0364 36.4655H8.96364C7.87709 36.4655 7 35.5884 7 34.5018V16.1746C7 15.088 7.87709 14.2109 8.96364 14.2109H41.0364C42.1229 14.2109 43 15.088 43 16.1746V34.5018C43 35.5884 42.1164 36.4655 41.0364 36.4655Z" fill="#FC1154"/>
<path d="M24.0123 21.3052V25.311H22.3629V21.9597C22.3629 21.135 21.7476 20.6899 21.1716 20.6899C20.6676 20.6899 20.2814 20.9321 19.9018 21.4688V25.311H18.2523V22.359C18.0821 22.4179 17.912 22.4637 17.7483 22.503C17.6567 24.2048 16.4523 25.4223 14.8225 25.4223C13.1207 25.4223 11.8901 24.1066 11.8901 22.3066V19.1648H13.5396V22.3001C13.5396 22.9743 13.8734 23.7663 14.8225 23.7663C15.693 23.7663 16.0465 23.0986 16.0989 22.4637C15.4116 22.1757 14.9861 21.4819 14.9861 20.5524C14.9861 19.5968 15.6996 19.0339 16.3869 19.0339C17.264 19.0339 17.7549 19.911 17.7483 20.7815C17.7483 20.7815 17.9905 20.6964 18.2523 20.5459V19.1648H19.9018V19.695C20.4647 19.2368 20.9883 19.0273 21.5905 19.0273C22.2581 19.0273 22.8669 19.263 23.3185 19.6819C23.7701 20.1008 24.0123 20.6768 24.0123 21.3052ZM24.6734 20.6179H27.4683L24.5229 24.1197V25.3044H29.7592V23.8513H26.7941L29.7592 20.3037V19.1583H24.6734V20.6179ZM35.1134 19.8848C35.6698 20.4477 35.9578 21.2463 35.9578 22.1888V22.7583H31.52C31.6378 23.5175 32.181 23.9692 32.9796 23.9692C33.6472 23.9692 34.2232 23.7008 34.4785 23.2688L34.485 23.2623H34.4916L35.7876 23.8448L35.781 23.8513C35.264 24.8463 34.2298 25.4157 32.9534 25.4157C31.1141 25.4157 29.8836 24.1328 29.8836 22.2281C29.8836 21.3313 30.2109 20.5066 30.8065 19.9175C31.376 19.3481 32.1418 19.0404 32.9534 19.0404C33.8305 19.047 34.5701 19.335 35.1134 19.8848ZM34.3476 21.4688C34.2101 20.8339 33.693 20.4543 32.9534 20.4543C32.2792 20.4543 31.7621 20.8339 31.5658 21.4688H34.3476ZM40.101 19.119C39.8785 19.0535 39.6298 19.0535 39.6298 19.0535C39.0865 19.0535 38.5629 19.263 38.1178 19.6557V19.1583H36.4683V25.3044H38.1178V21.495C38.445 20.8797 38.9425 20.5393 39.525 20.5393C39.525 20.5393 39.7869 20.5393 39.9505 20.5917L40.101 19.119ZM17.4014 28.5903C17.4014 28.3873 17.5716 28.2172 17.7745 28.2172C17.9774 28.2172 18.1476 28.3873 18.1476 28.5903C18.1476 28.7932 17.984 28.9633 17.7745 28.9633C17.5716 28.9633 17.4014 28.7932 17.4014 28.5903ZM17.4472 31.5095V29.2186H18.0887V31.5095H17.4472ZM18.6385 31.5095V29.2186H19.28V29.5197C19.4567 29.3299 19.712 29.1728 20.0392 29.1728C20.5498 29.1728 20.8312 29.5001 20.8312 29.9452V31.5161H20.1898V30.135C20.1898 29.8666 20.0589 29.7292 19.8167 29.7292C19.5941 29.7292 19.3847 29.8863 19.2734 30.0761V31.5226H18.6385V31.5095ZM21.9832 31.5095L21.1061 29.2186H21.8L22.2647 30.4819L22.3236 30.8877H22.3498L22.4087 30.4819L22.8734 29.2186H23.5672L22.6901 31.5095H21.9832ZM23.7112 30.3575C23.7112 29.6768 24.2283 29.1663 24.9614 29.1663C25.6945 29.1663 26.2116 29.6768 26.2116 30.3575C26.2116 31.0383 25.6945 31.5488 24.9614 31.5488C24.2283 31.5553 23.7112 31.0448 23.7112 30.3575ZM25.5636 30.3575C25.5636 29.9583 25.3018 29.7226 24.9549 29.7226C24.608 29.7226 24.3527 29.9583 24.3527 30.3575C24.3527 30.7568 24.608 30.9924 24.9549 30.9924C25.3018 30.9924 25.5636 30.7568 25.5636 30.3575ZM26.5847 28.5903C26.5847 28.3873 26.7549 28.2172 26.9578 28.2172C27.1672 28.2172 27.3309 28.3873 27.3309 28.5903C27.3309 28.7932 27.1672 28.9633 26.9578 28.9633C26.7483 28.9633 26.5847 28.7932 26.5847 28.5903ZM26.6305 31.5095V29.2186H27.272V31.5095H26.6305ZM27.6974 30.3575C27.6974 29.6506 28.2276 29.1663 28.8952 29.1663C29.504 29.1663 29.9163 29.5001 30.021 30.0172L29.9818 30.063L29.4516 30.1153C29.3927 29.8797 29.2094 29.7161 28.8952 29.7161C28.568 29.7161 28.3192 29.9386 28.3192 30.351C28.3192 30.7633 28.568 30.9859 28.8952 30.9859C29.2094 30.9859 29.3665 30.8353 29.4516 30.5866L29.9818 30.639L30.021 30.6783C29.8836 31.2281 29.4843 31.5357 28.8952 31.5357C28.2341 31.5553 27.6974 31.0644 27.6974 30.3575ZM30.3549 30.3575C30.3549 29.6441 30.9112 29.1663 31.533 29.1663C32.2138 29.1663 32.685 29.6048 32.685 30.3444V30.5146H30.9636C30.9963 30.8288 31.2189 31.0317 31.5527 31.0317C31.8472 31.0317 31.9978 30.8877 32.0763 30.6783L32.613 30.7306L32.6458 30.783C32.469 31.2935 32.0894 31.5423 31.5396 31.5423C30.8523 31.5553 30.3549 31.0775 30.3549 30.3575ZM32.0763 30.1023C32.0436 29.8273 31.821 29.6506 31.5265 29.6506C31.2581 29.6506 31.029 29.8273 30.9767 30.1023H32.0763Z" fill="white"/>
</svg>
