<svg width="40" height="24" viewBox="0 0 40 24" fill="none" xmlns="http://www.w3.org/2000/svg">
<rect x="0.5" y="0.5" width="39" height="23" rx="3.5" fill="white"/>
<rect x="0.5" y="0.5" width="39" height="23" rx="3.5" stroke="#DBDCE0"/>
<g clip-path="url(#clip0_5986_42750)">
<path d="M18.6944 7.20026C18.593 7.20025 18.4949 7.23944 18.4178 7.31078C18.3407 7.38211 18.2897 7.48091 18.2738 7.58938L17.5748 12.3894L16.9326 16.8L16.9322 16.8037L16.933 16.8L17.5752 12.3894C17.6079 12.1652 17.7861 12.0003 17.9956 12.0003H20.0433C22.1042 12.0003 23.8534 10.372 24.1728 8.16547C24.1972 7.99782 24.2102 7.83178 24.2132 7.66791V7.66766H24.2129C23.6892 7.37009 23.0742 7.20026 22.4003 7.20026H18.6944Z" fill="#001C64"/>
<path d="M24.213 7.66774C24.2101 7.83161 24.1969 7.99782 24.1726 8.16546C23.8532 10.3719 22.104 12.0003 20.0431 12.0003H17.9954C17.7859 12.0003 17.6077 12.1652 17.575 12.3894L16.9328 16.8L16.5297 19.5672C16.522 19.6206 16.525 19.6753 16.5386 19.7273C16.5522 19.7794 16.576 19.8277 16.6085 19.8688C16.641 19.9099 16.6813 19.943 16.7266 19.9656C16.772 19.9882 16.8214 20 16.8713 20H19.0941C19.1955 20 19.2936 19.9608 19.3707 19.8895C19.4478 19.8181 19.4988 19.7193 19.5147 19.6109L20.1002 15.5894C20.133 15.3652 20.3113 15.2 20.5208 15.2H21.8296C23.8905 15.2 25.6395 13.5718 25.9589 11.3655C26.1857 9.79914 25.4578 8.37426 24.213 7.66774Z" fill="#0070E0"/>
<path d="M16.169 4.00001C16.0676 4.00001 15.9695 4.03924 15.8924 4.11063C15.8153 4.18201 15.7642 4.28087 15.7484 4.38939L14.0043 16.3669C13.9965 16.4204 13.9995 16.4751 14.0131 16.5272C14.0267 16.5793 14.0505 16.6276 14.083 16.6687C14.1154 16.7099 14.1558 16.7429 14.2012 16.7656C14.2466 16.7883 14.2959 16.8 14.3459 16.8H16.9325L17.5747 12.3894L18.2737 7.58938C18.2896 7.48091 18.3406 7.38211 18.4177 7.31078C18.4948 7.23944 18.5929 7.20025 18.6943 7.20026H22.4001C23.0741 7.20026 23.6891 7.37034 24.2129 7.66749C24.2486 5.65872 22.718 4.00001 20.6134 4.00001H16.169Z" fill="#003087"/>
</g>
<defs>
<clipPath id="clip0_5986_42750">
<rect width="12" height="16" fill="white" transform="translate(14 4)"/>
</clipPath>
</defs>
</svg>
