<svg width="40" height="24" viewBox="0 0 40 24" fill="none" xmlns="http://www.w3.org/2000/svg">
<rect x="0.5" y="0.5" width="39" height="23" rx="3.5" fill="white"/>
<rect x="0.5" y="0.5" width="39" height="23" rx="3.5" stroke="#DBDCE0"/>
<path d="M5.81497 2.77734H11.0769C12.5213 2.77734 13.7078 3.92907 13.7078 5.36873C13.7078 6.79146 12.5385 7.96012 11.0769 7.96012H5.81497C4.37053 7.96012 3.18402 6.8084 3.18402 5.36873C3.18402 3.94601 4.35333 2.77734 5.81497 2.77734Z" fill="url(#paint0_linear_9979_46469)"/>
<path d="M28.6681 15.277H34.5147C36.389 15.277 37.9023 16.7675 37.9023 18.6136C37.9023 20.4598 36.389 21.9502 34.5147 21.9502H28.6681C26.7938 21.9502 25.2806 20.4598 25.2806 18.6136C25.2806 16.7675 26.7938 15.277 28.6681 15.277Z" fill="url(#paint1_linear_9979_46469)"/>
<path d="M27.8255 4.14925H12.4697C12.2513 4.14925 12.0742 4.32366 12.0742 4.53881V11.9404C12.0742 12.1555 12.2513 12.3299 12.4697 12.3299H27.8255C28.044 12.3299 28.221 12.1555 28.221 11.9404V4.53881C28.221 4.32366 28.044 4.14925 27.8255 4.14925Z" fill="url(#paint2_linear_9979_46469)"/>
<path d="M16.2184 5.25017C16.2184 5.10051 16.0952 4.97918 15.9433 4.97918C15.7913 4.97918 15.6682 5.10051 15.6682 5.25017V11.229C15.6682 11.3787 15.7913 11.5 15.9433 11.5C16.0952 11.5 16.2184 11.3787 16.2184 11.229V5.25017Z" fill="url(#paint3_linear_9979_46469)"/>
<path d="M24.6443 5.25017C24.6443 5.10051 24.5211 4.97918 24.3692 4.97918C24.2172 4.97918 24.0941 5.10051 24.0941 5.25017V11.229C24.0941 11.3787 24.2172 11.5 24.3692 11.5C24.5211 11.5 24.6443 11.3787 24.6443 11.229V5.25017Z" fill="url(#paint4_linear_9979_46469)"/>
<path d="M19.1761 10.1111C18.7978 9.82321 18.5398 9.45059 18.4023 8.95942H17.7832L17.9552 8.3158H18.2819V8.01093H17.7832L17.9552 7.36732H18.4023C18.557 6.89308 18.8149 6.5374 19.1933 6.24946C19.5716 5.97847 20.0187 5.84297 20.5173 5.84297C21.016 5.84297 21.4631 5.96153 21.807 6.19865C22.1509 6.43577 22.3917 6.77452 22.4948 7.21488L22.4433 7.29957L21.5319 7.41813C21.3943 6.96083 21.0332 6.72371 20.4829 6.72371C19.9327 6.72371 20.053 6.77452 19.8811 6.89308C19.7091 7.01164 19.5716 7.16407 19.4684 7.36732H20.7065L20.5345 8.01093H19.2792V8.3158H20.7065L20.5345 8.95942H19.434C19.52 9.1796 19.6575 9.34897 19.8467 9.46753C20.0187 9.58609 20.2422 9.65384 20.5173 9.65384C20.7925 9.65384 20.9988 9.58609 21.1708 9.46753C21.3427 9.34897 21.4631 9.16266 21.5319 8.92554L22.4433 9.0441L22.4948 9.12879C22.3573 9.58609 22.0993 9.94177 21.7726 10.1789C21.4287 10.416 21.016 10.5346 20.5173 10.5346C20.0187 10.5346 19.5372 10.3991 19.1589 10.1111H19.1761Z" fill="url(#paint5_linear_9979_46469)"/>
<path d="M6.48556 12.4315L4.54244 12.6517C4.42207 12.6517 4.3189 12.7195 4.25011 12.8042C4.16413 12.8888 4.12974 13.0243 4.14694 13.1429L4.74879 18.2749C4.74879 18.3934 4.83477 18.512 4.92075 18.5797C5.00673 18.6475 5.1271 18.6814 5.23027 18.6644L7.17339 18.4442C7.27657 18.4442 7.37974 18.3765 7.44853 18.3087C7.5345 18.2241 7.58609 18.0886 7.5689 17.9531L6.96704 12.8211C6.96704 12.7364 6.91546 12.6517 6.86387 12.584C6.77789 12.4824 6.62313 12.4146 6.46837 12.4315H6.48556Z" fill="url(#paint6_linear_9979_46469)"/>
<path d="M23.5438 15.802C23.475 15.802 23.4062 15.7851 23.3546 15.7851C23.2514 15.6665 23.1139 15.5819 22.9591 15.548C22.7528 15.4972 22.512 15.5141 22.3057 15.6327L19.9327 17.1062C19.6919 17.2586 19.5715 17.3264 19.2792 17.3433L18.8837 17.3772C18.8665 17.4958 18.8321 17.6313 18.7633 17.7329C18.6602 17.9361 18.5054 18.1224 18.3163 18.2579C18.1443 18.3765 17.9379 18.4442 17.7144 18.4781C17.4909 18.512 17.2329 18.4781 17.0094 18.3765L13.6046 16.886C13.5014 16.8352 13.4499 16.7166 13.5014 16.615C13.553 16.5134 13.6734 16.4626 13.7766 16.5134L17.1813 18.0039C17.3361 18.0716 17.5081 18.0886 17.6628 18.0716C17.8176 18.0547 17.9551 18.0039 18.0755 17.9192C18.1443 17.8684 18.1959 17.8176 18.2475 17.7668C18.2991 17.699 18.3506 17.6313 18.385 17.5635C18.4022 17.5127 18.4194 17.4619 18.4366 17.428C18.4366 17.428 18.4366 17.428 18.4366 17.4111C18.4366 17.3941 18.4366 17.3603 18.4366 17.3433C18.4366 17.3095 18.4366 17.2756 18.4366 17.2417C18.4366 17.2417 18.4366 17.2417 18.4366 17.2248C18.4366 17.174 18.4366 17.1062 18.4366 17.0554C18.385 16.7844 18.2131 16.5303 17.9551 16.3948L14.4644 14.6164C14.4644 14.6164 11.5067 10.7039 7.74086 12.838L7.36255 12.8888L7.94721 17.8514L8.30832 17.8176L14.1893 20.2565C14.3612 20.3243 14.5332 20.3751 14.7223 20.4259C14.9975 20.4767 15.2726 20.4936 15.5649 20.4598L19.9155 19.9686C20.1218 19.9517 20.3626 19.867 20.5861 19.7823C20.8096 19.6807 21.0332 19.5621 21.1879 19.4266L23.8533 17.2417C24.0596 17.0723 24.1628 16.8013 24.1456 16.5473C24.1456 16.4118 24.0768 16.2763 23.9909 16.1577C23.8705 16.0053 23.7157 15.9037 23.5438 15.8698V15.802Z" fill="url(#paint7_linear_9979_46469)"/>
<path d="M29.7858 17.9023C32.0366 17.9023 33.8612 16.1051 33.8612 13.8881C33.8612 11.6712 32.0366 9.87402 29.7858 9.87402C27.535 9.87402 25.7104 11.6712 25.7104 13.8881C25.7104 16.1051 27.535 17.9023 29.7858 17.9023Z" fill="url(#paint8_linear_9979_46469)"/>
<path d="M29.7514 9.6369C27.3268 9.6369 25.3665 11.5677 25.3665 13.9559C25.3665 16.344 27.3268 18.2749 29.7514 18.2749C32.176 18.2749 34.1364 16.344 34.1364 13.9559C34.1364 11.5677 32.176 9.6369 29.7514 9.6369ZM29.7514 17.6821C27.6536 17.6821 25.9684 16.0053 25.9684 13.9559C25.9684 11.9065 27.6707 10.2297 29.7514 10.2297C31.8321 10.2297 33.5345 11.9065 33.5345 13.9559C33.5345 16.0053 31.8321 17.6821 29.7514 17.6821Z" fill="url(#paint9_linear_9979_46469)"/>
<path d="M29.803 15.0568C29.5966 15.0568 29.4247 14.8874 29.4247 14.6842V11.6186C29.4247 11.4322 29.5794 11.2798 29.7514 11.2798C29.8546 11.2798 29.9406 11.3137 30.0093 11.3814C30.0781 11.4492 30.1125 11.5339 30.1125 11.6186V14.0406L31.2646 13.0582H31.2818C31.3162 13.0413 31.3506 13.0243 31.4022 13.0243C31.5398 13.0243 31.6773 13.109 31.7117 13.2445C31.7117 13.2784 31.7289 13.3123 31.7289 13.3631C31.7289 13.4986 31.6429 13.6171 31.5398 13.668L29.9749 15.0229H29.9578C29.9062 15.0399 29.8718 15.0568 29.8202 15.0568H29.803Z" fill="url(#paint10_linear_9979_46469)"/>
<path d="M29.803 14.9382C29.6654 14.9382 29.545 14.8197 29.545 14.6842V11.6186C29.545 11.5 29.6482 11.3984 29.7686 11.3984C29.8202 11.3984 29.889 11.4153 29.9234 11.4661C29.9577 11.5 29.9921 11.5677 29.9921 11.6186V14.2946L31.3162 13.1598C31.3334 13.1598 31.3678 13.1598 31.385 13.1598C31.471 13.1598 31.5569 13.2106 31.5913 13.2953C31.5913 13.3123 31.5913 13.3461 31.5913 13.3631C31.5913 13.4478 31.5398 13.5325 31.4538 13.5663L29.889 14.9213C29.8546 14.9213 29.8202 14.9382 29.7858 14.9382H29.803Z" fill="url(#paint11_linear_9979_46469)"/>
<defs>
<linearGradient id="paint0_linear_9979_46469" x1="8.89302" y1="2.74347" x2="8.09161" y2="7.64224" gradientUnits="userSpaceOnUse">
<stop stop-color="white"/>
<stop offset="1" stop-color="#E9F2FB"/>
</linearGradient>
<linearGradient id="paint1_linear_9979_46469" x1="32.2105" y1="15.2431" x2="31.1084" y2="21.5326" gradientUnits="userSpaceOnUse">
<stop stop-color="white"/>
<stop offset="1" stop-color="#E9F2FB"/>
</linearGradient>
<linearGradient id="paint2_linear_9979_46469" x1="20.9988" y1="3.53952" x2="19.4626" y2="12.3041" gradientUnits="userSpaceOnUse">
<stop stop-color="#415084"/>
<stop offset="1" stop-color="#272E4F"/>
</linearGradient>
<linearGradient id="paint3_linear_9979_46469" x1="18.0756" y1="5.01305" x2="14.2209" y2="11.0115" gradientUnits="userSpaceOnUse">
<stop stop-color="white"/>
<stop offset="1" stop-color="#F4F9FD"/>
</linearGradient>
<linearGradient id="paint4_linear_9979_46469" x1="26.4843" y1="5.01305" x2="22.6467" y2="11.0111" gradientUnits="userSpaceOnUse">
<stop stop-color="white"/>
<stop offset="1" stop-color="#F4F9FD"/>
</linearGradient>
<linearGradient id="paint5_linear_9979_46469" x1="17.7832" y1="8.19724" x2="22.512" y2="8.19724" gradientUnits="userSpaceOnUse">
<stop stop-color="white"/>
<stop offset="1" stop-color="#F4F9FD"/>
</linearGradient>
<linearGradient id="paint6_linear_9979_46469" x1="4.12974" y1="15.548" x2="7.58609" y2="15.548" gradientUnits="userSpaceOnUse">
<stop stop-color="#415084"/>
<stop offset="1" stop-color="#272E4F"/>
</linearGradient>
<linearGradient id="paint7_linear_9979_46469" x1="7.39694" y1="16.3102" x2="24.1628" y2="16.3102" gradientUnits="userSpaceOnUse">
<stop stop-color="#C73A6B"/>
<stop offset="1" stop-color="#C63057"/>
</linearGradient>
<linearGradient id="paint8_linear_9979_46469" x1="25.7104" y1="13.8881" x2="33.8784" y2="13.8881" gradientUnits="userSpaceOnUse">
<stop stop-color="white"/>
<stop offset="1" stop-color="#E9F2FB"/>
</linearGradient>
<linearGradient id="paint9_linear_9979_46469" x1="25.3665" y1="13.9559" x2="34.1364" y2="13.9559" gradientUnits="userSpaceOnUse">
<stop stop-color="#C73A6B"/>
<stop offset="1" stop-color="#C63057"/>
</linearGradient>
<linearGradient id="paint10_linear_9979_46469" x1="29.4075" y1="13.1598" x2="31.7117" y2="13.1598" gradientUnits="userSpaceOnUse">
<stop stop-color="#C73A6B"/>
<stop offset="1" stop-color="#C63057"/>
</linearGradient>
<linearGradient id="paint11_linear_9979_46469" x1="29.5278" y1="13.1598" x2="31.5913" y2="13.1598" gradientUnits="userSpaceOnUse">
<stop stop-color="#C73A6B"/>
<stop offset="1" stop-color="#C63057"/>
</linearGradient>
</defs>
</svg>
