<svg width="50" height="51" viewBox="0 0 50 51" fill="none" xmlns="http://www.w3.org/2000/svg">
<rect y="0.921875" width="50" height="50" fill="white"/>
<path d="M41.0364 37.0475H8.96364C7.87709 37.0475 7 36.1704 7 35.0839V16.7566C7 15.6701 7.87709 14.793 8.96364 14.793H41.0364C42.1229 14.793 43 15.6701 43 16.7566V35.0839C43 36.1704 42.1164 37.0475 41.0364 37.0475Z" fill="#FC1154"/>
<path d="M24.0109 21.8872V25.893H22.3614V22.5417C22.3614 21.717 21.7461 21.2719 21.1701 21.2719C20.6661 21.2719 20.2799 21.5141 19.9003 22.0508V25.893H18.2509V22.941C18.0807 22.9999 17.9105 23.0457 17.7469 23.085C17.6552 24.7868 16.4509 26.0043 14.821 26.0043C13.1192 26.0043 11.8887 24.6886 11.8887 22.8886V19.7468H13.5381V22.8821C13.5381 23.5563 13.8719 24.3483 14.821 24.3483C15.6916 24.3483 16.045 23.6806 16.0974 23.0457C15.4101 22.7577 14.9847 22.0639 14.9847 21.1345C14.9847 20.1788 15.6981 19.6159 16.3854 19.6159C17.2625 19.6159 17.7534 20.493 17.7469 21.3636C17.7469 21.3636 17.989 21.2785 18.2509 21.1279V19.7468H19.9003V20.277C20.4632 19.8188 20.9869 19.6094 21.589 19.6094C22.2567 19.6094 22.8654 19.845 23.317 20.2639C23.7687 20.6828 24.0109 21.2588 24.0109 21.8872ZM24.6719 21.1999H27.4669L24.5214 24.7017V25.8865H29.7578V24.4334H26.7927L29.7578 20.8857V19.7403H24.6719V21.1999ZM35.1119 20.4668C35.6683 21.0297 35.9563 21.8283 35.9563 22.7708V23.3403H31.5185C31.6363 24.0996 32.1796 24.5512 32.9781 24.5512C33.6458 24.5512 34.2218 24.2828 34.477 23.8508L34.4836 23.8443H34.4901L35.7861 24.4268L35.7796 24.4334C35.2625 25.4283 34.2283 25.9977 32.9519 25.9977C31.1127 25.9977 29.8821 24.7148 29.8821 22.8101C29.8821 21.9134 30.2094 21.0886 30.805 20.4996C31.3745 19.9301 32.1403 19.6225 32.9519 19.6225C33.829 19.629 34.5687 19.917 35.1119 20.4668ZM34.3461 22.0508C34.2087 21.4159 33.6916 21.0363 32.9519 21.0363C32.2778 21.0363 31.7607 21.4159 31.5643 22.0508H34.3461ZM40.0996 19.701C39.877 19.6356 39.6283 19.6356 39.6283 19.6356C39.085 19.6356 38.5614 19.845 38.1163 20.2377V19.7403H36.4669V25.8865H38.1163V22.077C38.4436 21.4617 38.941 21.1214 39.5236 21.1214C39.5236 21.1214 39.7854 21.1214 39.949 21.1737L40.0996 19.701ZM11.8887 33.0079V29.8006H12.5301V30.0494C12.6938 29.8857 12.9229 29.7548 13.2698 29.7548C13.7803 29.7548 14.3432 30.141 14.3432 30.9461C14.3432 31.7512 13.7541 32.1374 13.1912 32.1374C12.9229 32.1374 12.6872 32.0392 12.5301 31.9017V33.0079H11.8887V33.0079ZM13.6887 30.9396C13.6887 30.5076 13.4334 30.2785 13.0865 30.2785C12.7789 30.2785 12.5301 30.4879 12.5301 30.8283V31.0508C12.5301 31.3912 12.7854 31.6006 13.0996 31.6006C13.4334 31.6006 13.6887 31.3716 13.6887 30.9396ZM14.7883 32.0916V29.8006H15.4298V30.0756C15.5803 29.8923 15.7963 29.7548 16.0647 29.7548C16.1563 29.7548 16.2349 29.7679 16.2872 29.7941L16.2021 30.2981L16.1694 30.3308C16.1301 30.3243 16.0778 30.3046 16.0123 30.3046C15.7636 30.3046 15.5541 30.4421 15.4232 30.717V32.0916H14.7883V32.0916ZM16.4705 30.9396C16.4705 30.2261 17.0269 29.7483 17.6487 29.7483C18.3294 29.7483 18.8007 30.1868 18.8007 30.9265V31.0966H17.0792C17.1119 31.4108 17.3345 31.6137 17.6683 31.6137C17.9629 31.6137 18.1134 31.4697 18.1919 31.2603L18.7287 31.3126L18.7614 31.365C18.5847 31.8756 18.205 32.1243 17.6552 32.1243C16.9679 32.1374 16.4705 31.6596 16.4705 30.9396ZM18.1919 30.6843C18.1592 30.4094 17.9367 30.2326 17.6421 30.2326C17.3738 30.2326 17.1447 30.4094 17.0923 30.6843H18.1919ZM19.2261 33.0079V29.8006H19.8676V30.0494C20.0312 29.8857 20.2603 29.7548 20.6072 29.7548C21.1178 29.7548 21.6807 30.141 21.6807 30.9461C21.6807 31.7512 21.0981 32.1374 20.5287 32.1374C20.2603 32.1374 20.0247 32.0392 19.8676 31.9017V33.0079H19.2261V33.0079ZM21.0261 30.9396C21.0261 30.5076 20.7709 30.2785 20.4239 30.2785C20.1163 30.2785 19.8676 30.4879 19.8676 30.8283V31.0508C19.8676 31.3912 20.1229 31.6006 20.437 31.6006C20.7709 31.6006 21.0261 31.3716 21.0261 30.9396ZM22.0079 30.9396C22.0079 30.1345 22.5839 29.7483 23.1469 29.7483C23.4349 29.7483 23.6509 29.8465 23.821 29.9839V29.7941H24.4625V32.085H23.821V31.8494C23.6705 32.013 23.4479 32.1308 23.1076 32.1308C22.597 32.1374 22.0079 31.7512 22.0079 30.9396ZM23.821 31.0508V30.8283C23.821 30.4879 23.5658 30.2785 23.2581 30.2785C22.9178 30.2785 22.6625 30.5076 22.6625 30.9396C22.6625 31.3716 22.9178 31.6006 23.2647 31.6006C23.5658 31.6006 23.821 31.3977 23.821 31.0508ZM25.3461 33.0079L25.7389 32.0326L24.7963 29.8006H25.5294L25.9941 30.9396L26.0203 31.2734H26.0596L26.6421 29.8006H27.3229L26.0203 33.0079H25.3461ZM27.6829 32.0916V29.8006H28.3243V30.069C28.4945 29.8726 28.717 29.7548 29.005 29.7548C29.293 29.7548 29.4763 29.8792 29.581 30.0756C29.7839 29.8596 30.0327 29.7548 30.3141 29.7548C30.7919 29.7548 31.0538 30.0428 31.0538 30.4945V32.0916H30.4123V30.6319C30.4123 30.429 30.3272 30.3046 30.1178 30.3046C29.9279 30.3046 29.7905 30.4159 29.6858 30.5926V32.0916H29.0443V30.6385C29.0443 30.4356 28.9658 30.3046 28.7629 30.3046C28.573 30.3046 28.4159 30.4421 28.3309 30.6188V32.0916H27.6829ZM31.4792 30.9396C31.4792 30.2261 32.0356 29.7483 32.6574 29.7483C33.3381 29.7483 33.8094 30.1868 33.8094 30.9265V31.0966H32.0814C32.1141 31.4108 32.3367 31.6137 32.6705 31.6137C32.965 31.6137 33.1156 31.4697 33.1941 31.2603L33.7309 31.3126L33.7636 31.365C33.5869 31.8756 33.2072 32.1243 32.6574 32.1243C31.9767 32.1374 31.4792 31.6596 31.4792 30.9396ZM33.2007 30.6843C33.1679 30.4094 32.9454 30.2326 32.6509 30.2326C32.3825 30.2326 32.1534 30.4094 32.101 30.6843H33.2007ZM34.2349 32.0916V29.8006H34.8763V30.1017C35.053 29.9119 35.3083 29.7548 35.6356 29.7548C36.1461 29.7548 36.4276 30.0821 36.4276 30.5272V32.0981H35.7861V30.717C35.7861 30.4486 35.6552 30.3112 35.413 30.3112C35.1905 30.3112 34.981 30.4683 34.8698 30.6581V32.1046H34.2349V32.0916ZM37.1214 31.437V30.3243H36.7156V29.7941H37.1214V29.1396H37.2065L37.7629 29.3294V29.7941H38.2472V30.3243H37.7629V31.3781C37.7629 31.5286 37.8545 31.6072 38.0116 31.6072C38.0836 31.6072 38.1294 31.5941 38.1949 31.5745L38.2276 31.5941V32.085C38.0901 32.1177 37.9854 32.1308 37.8218 32.1308C37.4094 32.1374 37.1214 31.9214 37.1214 31.437Z" fill="white"/>
</svg>
