<svg width="40" height="24" viewBox="0 0 40 24" fill="none" xmlns="http://www.w3.org/2000/svg">
<rect x="0.5" y="0.5" width="39" height="23" rx="3.5" fill="white"/>
<rect x="0.5" y="0.5" width="39" height="23" rx="3.5" stroke="#DBDCE0"/>
<g clip-path="url(#clip0_5986_42756)">
<path d="M11.6297 3.00008H18.8047C19.8063 3.00008 20.4293 3.81645 20.1956 4.82135L16.8551 19.1635C16.6194 20.1649 15.6166 20.982 14.6143 20.982H7.43989C6.43971 20.982 5.81536 20.1649 6.04901 19.1635L9.39093 4.82135C9.62458 3.81645 10.6269 3.00008 11.6297 3.00008Z" fill="#E21836"/>
<path d="M18.2077 3.00008H26.4589C27.4603 3.00008 27.0087 3.81645 26.7731 4.82135L23.4331 19.1635C23.1988 20.1649 23.2719 20.982 22.2684 20.982H14.0172C13.0137 20.982 12.3927 20.1649 12.6285 19.1635L15.9683 4.82135C16.2054 3.81645 17.2056 3.00008 18.2077 3.00008Z" fill="#00447C"/>
<path d="M26.1316 3.00008H33.3067C34.3097 3.00008 34.9326 3.81645 34.6971 4.82135L31.3571 19.1635C31.1213 20.1649 30.1178 20.982 29.115 20.982H21.9432C20.9397 20.982 20.3173 20.1649 20.5524 19.1635L23.8929 4.82135C24.1265 3.81645 25.1281 3.00008 26.1316 3.00008Z" fill="#007B84"/>
<path d="M13.5035 7.59632C12.7657 7.60384 12.5478 7.59632 12.4781 7.57988C12.4514 7.70703 11.9535 10.0038 11.9521 10.0057C11.8449 10.4704 11.7669 10.8017 11.5019 11.0155C11.3515 11.1399 11.1759 11.1999 10.9724 11.1999C10.6452 11.1999 10.4545 11.0374 10.4225 10.7292L10.4164 10.6234C10.4164 10.6234 10.5161 10.001 10.5161 9.99752C10.5161 9.99752 11.0387 7.90447 11.1322 7.6278C11.1371 7.61206 11.1385 7.60384 11.1397 7.59632C10.1226 7.60524 9.94229 7.59632 9.92987 7.57988C9.92305 7.60244 9.89787 7.73221 9.89787 7.73221L9.36429 10.0913L9.31846 10.2913L9.2298 10.9458C9.2298 11.1399 9.26792 11.2983 9.34382 11.4323C9.58692 11.8571 10.2803 11.9208 10.6726 11.9208C11.178 11.9208 11.6522 11.8134 11.9726 11.6173C12.5287 11.2887 12.6742 10.7751 12.804 10.3186L12.8641 10.0844C12.8641 10.0844 13.4024 7.91059 13.4939 7.6278C13.4974 7.61206 13.4988 7.60384 13.5035 7.59632ZM15.3351 9.34998C15.2053 9.34998 14.9681 9.38146 14.7551 9.48587C14.6778 9.52557 14.6047 9.57139 14.5276 9.61704L14.5972 9.36572L14.5591 9.3234C14.1073 9.41487 14.0063 9.42711 13.589 9.48587L13.554 9.50913C13.5056 9.91085 13.4625 10.2129 13.2829 11.0025C13.2145 11.2935 13.1435 11.5873 13.0724 11.8776L13.0916 11.9145C13.5192 11.892 13.649 11.892 14.0206 11.8981L14.0507 11.8654C14.0979 11.6235 14.104 11.5669 14.2086 11.077C14.2577 10.8447 14.3602 10.3344 14.4108 10.1527C14.5036 10.1097 14.5953 10.0674 14.6827 10.0674C14.891 10.0674 14.8657 10.2491 14.8576 10.3215C14.8487 10.443 14.7728 10.84 14.695 11.1809L14.643 11.4009C14.6068 11.5634 14.5671 11.7213 14.5309 11.8823L14.5467 11.9145C14.9681 11.892 15.0967 11.892 15.4566 11.8981L15.4989 11.8654C15.564 11.4876 15.583 11.3865 15.6985 10.8365L15.7565 10.5838C15.8693 10.0892 15.926 9.83844 15.8406 9.63418C15.7504 9.40525 15.5339 9.34998 15.3351 9.34998ZM17.3811 9.86781C17.1571 9.91083 17.0142 9.93951 16.8722 9.95805C16.7314 9.98061 16.5941 10.0011 16.3776 10.0312L16.3604 10.0467L16.3447 10.0591C16.3221 10.2204 16.3064 10.3598 16.2765 10.5236C16.2511 10.6931 16.2121 10.8857 16.1487 11.1623C16.0995 11.3741 16.0742 11.4479 16.0462 11.5224C16.0189 11.5969 15.9888 11.6693 15.9335 11.8776L15.9465 11.8968L15.9573 11.9145C16.1597 11.9049 16.2921 11.8981 16.4281 11.8968C16.564 11.892 16.7048 11.8968 16.9227 11.8981L16.9418 11.8825L16.9622 11.8654C16.9937 11.6775 16.9984 11.627 17.0177 11.5354C17.0367 11.4371 17.0696 11.301 17.1502 10.9376C17.1884 10.7669 17.2309 10.5967 17.2704 10.4225C17.3115 10.2491 17.3545 10.0782 17.3954 9.90751L17.3893 9.88687L17.3811 9.86781ZM17.3859 9.16962C17.1823 9.04948 16.825 9.0876 16.5845 9.25357C16.3448 9.41621 16.3175 9.64707 16.5203 9.76879C16.7204 9.88561 17.0791 9.85081 17.3175 9.68344C17.5567 9.5173 17.5866 9.28855 17.3859 9.16962ZM18.617 11.9522C19.0288 11.9522 19.451 11.8387 19.7688 11.5018C20.0133 11.2287 20.1254 10.8222 20.1642 10.6549C20.2906 10.1001 20.1922 9.8411 20.0685 9.68335C19.8807 9.44289 19.5488 9.36576 19.2044 9.36576C18.9974 9.36576 18.5042 9.38622 18.1189 9.74142C17.8422 9.99763 17.7144 10.3453 17.6373 10.6786C17.5594 11.0183 17.4699 11.6297 18.0322 11.8572C18.2056 11.9317 18.4557 11.9522 18.617 11.9522ZM18.5848 10.704C18.6798 10.2839 18.7919 9.93134 19.078 9.93134C19.3022 9.93134 19.3185 10.1937 19.2188 10.6152C19.2009 10.7087 19.1191 11.0566 19.0084 11.2047C18.9311 11.314 18.8396 11.3803 18.7385 11.3803C18.7084 11.3803 18.5295 11.3803 18.5267 11.1146C18.5253 10.9835 18.5521 10.8495 18.5848 10.704ZM21.1938 11.8981L21.2259 11.8654C21.2716 11.6236 21.2791 11.5667 21.3802 11.077C21.4307 10.8448 21.5353 10.3345 21.5845 10.1528C21.6775 10.1096 21.7676 10.0672 21.8578 10.0672C22.0647 10.0672 22.0395 10.249 22.0313 10.3214C22.0238 10.4431 21.9479 10.8399 21.8687 11.1808L21.8195 11.4008C21.7819 11.5634 21.741 11.7212 21.7048 11.8824L21.7205 11.9146C22.1434 11.892 22.267 11.892 22.6291 11.8981L22.6728 11.8654C22.7363 11.4875 22.7534 11.3864 22.8723 10.8366L22.929 10.5837C23.0423 10.0891 23.0997 9.8385 23.0157 9.63423C22.9229 9.4053 22.705 9.35004 22.5089 9.35004C22.379 9.35004 22.1406 9.38134 21.9288 9.48592C21.8531 9.52562 21.7772 9.57127 21.7027 9.61709L21.7676 9.36578L21.7328 9.32328C21.2812 9.41492 21.178 9.42716 20.7613 9.48592L20.7293 9.50918C20.6787 9.9109 20.6376 10.2128 20.458 11.0025C20.3896 11.2936 20.3186 11.5874 20.2476 11.8777L20.2667 11.9146C20.695 11.892 20.8228 11.892 21.1938 11.8981ZM24.3007 11.9145C24.3273 11.7847 24.4852 11.0156 24.4866 11.0156C24.4866 11.0156 24.6211 10.4512 24.6293 10.4308C24.6293 10.4308 24.6717 10.372 24.714 10.3487H24.7762C25.3637 10.3487 26.027 10.3487 26.547 9.96625C26.9008 9.70392 27.1426 9.31655 27.2505 8.84575C27.2785 8.73033 27.2992 8.59304 27.2992 8.45575C27.2992 8.27544 27.263 8.09706 27.1584 7.95767C26.8932 7.58674 26.3653 7.57992 25.7558 7.57712C25.7539 7.57712 25.4553 7.57992 25.4553 7.57992C24.6752 7.58954 24.3623 7.58674 24.2337 7.571C24.2229 7.62784 24.2024 7.72892 24.2024 7.72892C24.2024 7.72892 23.923 9.02414 23.923 9.02623C23.923 9.02623 23.2542 11.78 23.2227 11.9098C23.9039 11.9016 24.1832 11.9016 24.3007 11.9145ZM24.8186 9.61368C24.8186 9.61368 25.1157 8.32109 25.1143 8.32599L25.1239 8.2597L25.1281 8.20916L25.2469 8.2214C25.2469 8.2214 25.8597 8.27404 25.874 8.27544C26.1159 8.36901 26.2156 8.61018 26.146 8.92497C26.0825 9.21266 25.8959 9.45453 25.6561 9.57136C25.4586 9.67034 25.2168 9.67856 24.9676 9.67856H24.8063L24.8186 9.61368ZM26.6686 10.7279C26.5901 11.0627 26.4998 11.6741 27.0593 11.892C27.2377 11.9679 27.3975 11.9904 27.56 11.9822C27.7316 11.973 27.8905 11.8869 28.0378 11.7631C28.0245 11.814 28.0112 11.8649 27.9979 11.9159L28.0233 11.9486C28.4257 11.9317 28.5505 11.9317 28.9865 11.935L29.0261 11.9049C29.0897 11.5307 29.1497 11.1673 29.3152 10.4513C29.3958 10.1083 29.4762 9.76868 29.5589 9.42713L29.546 9.38953C29.0958 9.47295 28.9755 9.49079 28.5425 9.55217L28.5096 9.57893C28.5053 9.61373 28.5007 9.64714 28.4965 9.68054C28.4292 9.57176 28.3316 9.47889 28.181 9.42101C27.9885 9.34528 27.5362 9.44287 27.1474 9.79684C26.8743 10.0496 26.7431 10.3958 26.6686 10.7279ZM27.614 10.7484C27.7104 10.3358 27.8211 9.98677 28.1079 9.98677C28.2893 9.98677 28.3848 10.1541 28.3653 10.4395C28.35 10.5107 28.3333 10.5858 28.3136 10.6706C28.2849 10.7932 28.2538 10.9147 28.2235 11.0364C28.1927 11.1197 28.1569 11.1982 28.1175 11.2505C28.0437 11.3551 27.8681 11.42 27.7671 11.42C27.7384 11.42 27.5614 11.42 27.5553 11.159C27.5539 11.0291 27.5806 10.8953 27.614 10.7484ZM32.5512 9.38619L32.5164 9.34649C32.0709 9.43673 31.9903 9.45107 31.5811 9.50633L31.551 9.53641C31.5496 9.54131 31.5484 9.54883 31.5463 9.55565L31.5449 9.54883C31.2402 10.2517 31.2491 10.1001 31.0012 10.6534C30.9998 10.6282 30.9998 10.6125 30.9984 10.5857L30.9363 9.38619L30.8973 9.34649C30.4307 9.43673 30.4197 9.45107 29.9887 9.50633L29.9552 9.53641C29.9504 9.55076 29.9504 9.5665 29.9476 9.58363L29.9504 9.58976C30.0043 9.86503 29.9914 9.80364 30.0454 10.2381C30.0706 10.4512 30.1042 10.6657 30.1293 10.8762C30.1718 11.2286 30.1956 11.4021 30.2476 11.9399C29.9566 12.4201 29.8876 12.6018 29.6075 13.0233L29.6094 13.0275L29.4121 13.3395C29.3896 13.3724 29.3691 13.3949 29.3404 13.4046C29.3089 13.4201 29.268 13.4229 29.2112 13.4229H29.1019L28.9394 13.9633L29.4968 13.9729C29.824 13.9715 30.0297 13.8185 30.1404 13.6129L30.4908 13.0123H30.4852L30.5221 12.97C30.7579 12.4624 32.5512 9.38619 32.5512 9.38619ZM26.6686 16.4835H26.4321L27.3073 13.589H27.5976L27.6897 13.2908L27.6987 13.6224C27.6878 13.8274 27.8491 14.0091 28.2726 13.979H28.7625L28.9311 13.4216H28.7468C28.6408 13.4216 28.5916 13.3949 28.5977 13.3375L28.5888 13.0001H27.6817V13.0019C27.3884 13.008 26.5126 13.03 26.3352 13.0773C26.1206 13.1325 25.8945 13.2952 25.8945 13.2952L25.9834 12.9966H25.1348L24.958 13.589L24.0711 16.5278H23.8991L23.7303 17.0811H25.4204L25.3637 17.2656H26.1966L26.2518 17.0811H26.4855L26.6686 16.4835ZM25.9751 14.1771C25.8393 14.2147 25.5864 14.3288 25.5864 14.3288L25.8113 13.589H26.4855L26.3228 14.128C26.3228 14.128 26.1145 14.1402 25.9751 14.1771ZM25.9881 15.234C25.9881 15.234 25.7763 15.2606 25.6369 15.292C25.4996 15.3337 25.2422 15.4648 25.2422 15.4648L25.4744 14.695H26.1521L25.9881 15.234ZM25.6103 16.4904H24.934L25.1301 15.8407H25.8043L25.6103 16.4904ZM27.239 14.695H28.2138L28.0737 15.1486H27.086L26.9377 15.6446H27.8019L27.1475 16.5661C27.1017 16.6338 27.0606 16.6577 27.0149 16.6768C26.9691 16.7 26.909 16.7273 26.8394 16.7273H26.5996L26.4349 17.2705H27.062C27.388 17.2705 27.5805 17.1222 27.7227 16.9276L28.1715 16.3134L28.2678 16.937C28.2883 17.0538 28.3722 17.1222 28.4291 17.1488C28.4919 17.1803 28.5568 17.2343 28.6484 17.2424C28.7467 17.2466 28.8177 17.2499 28.8649 17.2499H29.1731L29.3581 16.642H29.2365C29.1668 16.642 29.0466 16.6303 29.0262 16.6084C29.0057 16.5818 29.0057 16.5409 28.9947 16.4786L28.8969 15.8536H28.4966L28.6722 15.6446H29.658L29.8096 15.1486H28.8969L29.0391 14.695H29.949L30.1178 14.1355H27.4049L27.239 14.695ZM19.0056 16.6167L19.2331 15.8598H20.1683L20.3391 15.2968H19.4031L19.546 14.8309H20.4607L20.6301 14.2858H18.3416L18.1756 14.8309H18.6955L18.5569 15.2968H18.0355L17.8627 15.8694H18.3825L18.0792 16.8708C18.0383 17.0034 18.0985 17.0539 18.1366 17.1155C18.1756 17.1754 18.2151 17.2151 18.304 17.2377C18.3956 17.2582 18.4584 17.2704 18.5437 17.2704H19.598L19.7858 16.6468L19.3185 16.7109C19.2282 16.7109 18.9783 16.7001 19.0056 16.6167ZM19.1129 12.9932L18.8759 13.4215C18.8252 13.5151 18.7795 13.5732 18.7384 13.5999C18.7022 13.6225 18.6305 13.6319 18.5267 13.6319H18.403L18.2377 14.1798H18.6484C18.8458 14.1798 18.9974 14.1074 19.0699 14.0712C19.1477 14.0296 19.1681 14.0534 19.2283 13.9953L19.367 13.8752H20.6493L20.8194 13.3047H19.8808L20.0447 12.9932H19.1129ZM21.0059 16.6277C20.9841 16.5962 20.9998 16.5408 21.0332 16.4253L21.3837 15.2653H22.6304C22.8122 15.2627 22.9433 15.2606 23.0287 15.2545C23.1203 15.2448 23.22 15.2121 23.3286 15.1534C23.4407 15.0918 23.4981 15.0269 23.5465 14.9524C23.6005 14.8781 23.6873 14.7155 23.7618 14.4647L24.2023 12.9967L22.9085 13.0042C22.9085 13.0042 22.5101 13.063 22.3347 13.1278C22.1577 13.2002 21.9048 13.4024 21.9048 13.4024L22.0217 13H21.2224L20.1035 16.7109C20.0638 16.855 20.0372 16.9596 20.0311 17.0224C20.029 17.0901 20.1164 17.1571 20.1731 17.2076C20.2401 17.2582 20.3391 17.2499 20.434 17.2582C20.5339 17.2657 20.6759 17.2704 20.872 17.2704H21.4862L21.6747 16.6338L21.1248 16.6857C21.0661 16.6857 21.0236 16.6543 21.0059 16.6277ZM21.6098 14.4818H22.9194L22.8361 14.7427C22.8244 14.7489 22.7964 14.7298 22.6631 14.7455H21.5292L21.6098 14.4818ZM21.8721 13.6067H23.1927L23.0977 13.921C23.0977 13.921 22.4753 13.9148 22.3756 13.9332C21.937 14.0091 21.6808 14.2434 21.6808 14.2434L21.8721 13.6067ZM22.8654 15.6165C22.8546 15.6555 22.8374 15.6793 22.8135 15.6972C22.7869 15.7143 22.7439 15.7204 22.6797 15.7204H22.4931L22.5041 15.4026H21.728L21.6965 16.9562C21.6953 17.0683 21.7061 17.1332 21.7881 17.1851C21.8701 17.25 22.1229 17.2582 22.463 17.2582H22.9494L23.125 16.6767L22.7016 16.7L22.5608 16.7082C22.5415 16.7 22.5232 16.6924 22.5027 16.672C22.4849 16.6543 22.4548 16.6652 22.4597 16.5531L22.463 16.1548L22.907 16.1365C23.1468 16.1365 23.2493 16.0585 23.3367 15.9841C23.4202 15.913 23.4474 15.8311 23.4789 15.7204L23.5534 15.3678H22.9432L22.8654 15.6165Z" fill="#FEFEFE"/>
</g>
<defs>
<clipPath id="clip0_5986_42756">
<rect width="28.8" height="18" fill="white" transform="translate(6 3)"/>
</clipPath>
</defs>
</svg>
