<svg width="40" height="24" viewBox="0 0 40 24" fill="none" xmlns="http://www.w3.org/2000/svg">
<g clip-path="url(#clip0_7745_35895)">
<rect width="40" height="24" rx="4" fill="#FFB3C7"/>
<g clip-path="url(#clip1_7745_35895)">
<path d="M37.8037 24H2.16729C0.960019 24 -0.0145264 23.0541 -0.0145264 21.8824V2.11765C-0.0145264 0.945882 0.960019 0 2.16729 0H37.8037C39.0109 0 39.9855 0.945882 39.9855 2.11765V21.8824C39.9855 23.0541 39.0037 24 37.8037 24Z" fill="#FC1154"/>
<path d="M18.8873 7.65175V11.9718H17.0546V8.35763C17.0546 7.46822 16.3709 6.98822 15.7309 6.98822C15.1709 6.98822 14.7419 7.2494 14.32 7.82822V11.9718H12.4873V8.78822C12.2982 8.85175 12.1091 8.90116 11.9273 8.94352C11.8255 10.7788 10.4873 12.0918 8.6764 12.0918C6.7855 12.0918 5.41822 10.6729 5.41822 8.73175V5.34352H7.25095V8.72469C7.25095 9.45175 7.62186 10.3059 8.6764 10.3059C9.64368 10.3059 10.0364 9.58587 10.0946 8.90116C9.33095 8.59058 8.85822 7.84234 8.85822 6.83999C8.85822 5.8094 9.65095 5.20234 10.4146 5.20234C11.3891 5.20234 11.9346 6.14822 11.9273 7.08705C11.9273 7.08705 12.1964 6.99528 12.4873 6.83293V5.34352H14.32V5.91528C14.9455 5.42116 15.5273 5.19528 16.1964 5.19528C16.9382 5.19528 17.6146 5.4494 18.1164 5.90116C18.6182 6.35293 18.8873 6.97411 18.8873 7.65175ZM19.6219 6.91058H22.7273L19.4546 10.687V11.9647H25.2728V10.3976H21.9782L25.2728 6.57175V5.33646H19.6219V6.91058ZM31.2219 6.11999C31.84 6.72705 32.16 7.58822 32.16 8.60469V9.21881H27.2291C27.36 10.0376 27.9637 10.5247 28.8509 10.5247C29.5928 10.5247 30.2328 10.2353 30.5164 9.7694L30.5237 9.76234H30.531L31.9709 10.3906L31.9637 10.3976C31.3891 11.4706 30.24 12.0847 28.8219 12.0847C26.7782 12.0847 25.4109 10.7012 25.4109 8.64705C25.4109 7.67999 25.7746 6.79058 26.4364 6.15528C27.0691 5.54116 27.92 5.2094 28.8219 5.2094C29.7964 5.21646 30.6182 5.52705 31.2219 6.11999ZM30.371 7.82822C30.2182 7.14352 29.6437 6.73411 28.8219 6.73411C28.0728 6.73411 27.4982 7.14352 27.28 7.82822H30.371ZM36.7637 5.29411C36.5164 5.22352 36.24 5.22352 36.24 5.22352C35.6364 5.22352 35.0546 5.4494 34.56 5.87293V5.33646H32.7273V11.9647H34.56V7.85646C34.9237 7.19293 35.4764 6.82587 36.1237 6.82587C36.1237 6.82587 36.4146 6.82587 36.5964 6.88234L36.7637 5.29411ZM4.58913 18.3882V18.6565H3.8764V15.0494H4.58913V16.4259C4.77822 16.2706 5.02549 16.1365 5.38913 16.1365C6.00731 16.1365 6.60368 16.5529 6.60368 17.4212C6.60368 18.2894 5.97095 18.7059 5.40368 18.7059C5.02549 18.7059 4.76368 18.5647 4.58913 18.3882ZM5.8764 17.4141C5.8764 16.9482 5.59277 16.7012 5.22186 16.7012C4.87277 16.7012 4.58913 16.927 4.58913 17.2941V17.5341C4.58913 17.9082 4.88731 18.127 5.20731 18.127C5.59277 18.127 5.8764 17.88 5.8764 17.4141ZM6.96731 17.4141C6.96731 16.5459 7.60731 16.1294 8.23277 16.1294C8.55277 16.1294 8.79277 16.2353 8.98186 16.3835V16.1788H9.69459V18.6494H8.98186V18.3953C8.81459 18.5718 8.56731 18.6988 8.18913 18.6988C7.62186 18.7059 6.96731 18.2894 6.96731 17.4141ZM8.97459 17.5341V17.2941C8.97459 16.927 8.69095 16.7012 8.34913 16.7012C7.97095 16.7012 7.68731 16.9482 7.68731 17.4141C7.68731 17.88 7.97095 18.127 8.3564 18.127C8.69822 18.127 8.97459 17.9082 8.97459 17.5341ZM10.32 18.6565V16.1859H11.0328V16.5106C11.2291 16.3059 11.5128 16.1365 11.8764 16.1365C12.4437 16.1365 12.7564 16.4894 12.7564 16.9694V18.6635H12.0437V17.1741C12.0437 16.8847 11.8982 16.7365 11.6291 16.7365C11.3819 16.7365 11.1491 16.9059 11.0255 17.1106V18.6706H10.32V18.6565ZM13.3673 18.6565V15.0494H14.08V16.9906H14.1091L14.8364 16.1859H15.68L14.7055 17.2729L15.7382 18.6565H14.8946L14.1164 17.6188H14.0873V18.6565H13.3673ZM17.44 17.9506V16.7506H16.9891V16.1788H17.44V15.4729H17.5346L18.1528 15.6776V16.1788H18.691V16.7506H18.1528V17.887C18.1528 18.0494 18.2546 18.1341 18.4291 18.1341C18.5091 18.1341 18.56 18.12 18.6328 18.0988L18.6691 18.12V18.6494C18.5164 18.6847 18.4 18.6988 18.2182 18.6988C17.7673 18.7059 17.44 18.4729 17.44 17.9506ZM19.1928 18.6565V16.1859H19.9055V16.4823C20.0728 16.2847 20.3128 16.1365 20.611 16.1365C20.7128 16.1365 20.8 16.1506 20.8582 16.1788L20.7637 16.7223L20.7273 16.7576C20.6837 16.7506 20.6255 16.7294 20.5528 16.7294C20.2764 16.7294 20.0437 16.8776 19.8982 17.1741V18.6565H19.1928ZM21.0619 17.4141C21.0619 16.5459 21.7019 16.1294 22.3273 16.1294C22.6473 16.1294 22.8873 16.2353 23.0764 16.3835V16.1788H23.7891V18.6494H23.0764V18.3953C22.9091 18.5718 22.6619 18.6988 22.2837 18.6988C21.7237 18.7059 21.0619 18.2894 21.0619 17.4141ZM23.0764 17.5341V17.2941C23.0764 16.927 22.8 16.7012 22.451 16.7012C22.0728 16.7012 21.7891 16.9482 21.7891 17.4141C21.7891 17.88 22.0728 18.127 22.4582 18.127C22.7928 18.127 23.0764 17.9082 23.0764 17.5341ZM24.4219 18.6565V16.1859H25.1346V16.5106C25.331 16.3059 25.6146 16.1365 25.9782 16.1365C26.5455 16.1365 26.8582 16.4894 26.8582 16.9694V18.6635H26.1455V17.1741C26.1455 16.8847 26 16.7365 25.731 16.7365C25.4837 16.7365 25.2509 16.9059 25.1273 17.1106V18.6706H24.4219V18.6565ZM27.2946 17.9788L27.3164 17.9153L27.8619 17.76C27.92 18.007 28.0728 18.1765 28.4146 18.1765C28.6255 18.1765 28.7782 18.0847 28.7782 17.9365C28.7782 17.7812 28.6619 17.7106 28.2182 17.5976C27.7019 17.4776 27.4109 17.2518 27.4109 16.8494C27.4109 16.4541 27.7746 16.1435 28.3273 16.1435C28.8655 16.1435 29.2219 16.3835 29.3237 16.7929L29.2946 16.8494L28.7564 16.9765C28.7055 16.7435 28.5382 16.6235 28.32 16.6235C28.1528 16.6235 28.0219 16.7012 28.0219 16.8141C28.0219 16.9694 28.2182 17.0329 28.6837 17.16C29.1855 17.2941 29.4473 17.4918 29.4473 17.8941C29.4473 18.3529 29.0473 18.7129 28.4291 18.7129C27.7964 18.7059 27.4255 18.4235 27.2946 17.9788ZM30.08 18.6565V16.7576H29.651V16.1859H30.08V15.7835C30.08 15.2329 30.5091 15 30.96 15C31.1055 15 31.2219 15.0212 31.3237 15.0494V15.5859L31.2873 15.6141C31.2291 15.5859 31.1419 15.5718 31.0546 15.5718C30.9019 15.5718 30.7928 15.6494 30.7928 15.8259V16.1929H31.3164V16.7647H30.7928V18.6635H30.08V18.6565ZM31.5564 17.4141C31.5564 16.6447 32.1746 16.1294 32.8655 16.1294C33.6219 16.1294 34.1455 16.6023 34.1455 17.4V17.5835H32.2328C32.2691 17.9223 32.5164 18.1412 32.8873 18.1412C33.2146 18.1412 33.3819 17.9859 33.4691 17.76L34.0655 17.8165L34.1019 17.8729C33.9055 18.4235 33.4837 18.6918 32.8728 18.6918C32.1091 18.7059 31.5564 18.1906 31.5564 17.4141ZM33.4691 17.1388C33.4328 16.8423 33.1855 16.6518 32.8582 16.6518C32.56 16.6518 32.3055 16.8423 32.2473 17.1388H33.4691ZM34.6182 18.6565V16.1859H35.3309V16.4823C35.4982 16.2847 35.7382 16.1365 36.0364 16.1365C36.1382 16.1365 36.2255 16.1506 36.2837 16.1788L36.1891 16.7223L36.1528 16.7576C36.1091 16.7506 36.0509 16.7294 35.9782 16.7294C35.7019 16.7294 35.4691 16.8776 35.3237 17.1741V18.6565H34.6182Z" fill="white"/>
</g>
</g>
<defs>
<clipPath id="clip0_7745_35895">
<rect width="40" height="24" rx="4" fill="white"/>
</clipPath>
<clipPath id="clip1_7745_35895">
<rect width="40" height="24" fill="white"/>
</clipPath>
</defs>
</svg>
