<svg width="40" height="24" viewBox="0 0 40 24" fill="none" xmlns="http://www.w3.org/2000/svg">
<rect width="40" height="24" rx="4" fill="#FC1154"/>
<path d="M18.0501 10.8504V15.8547H16.0008V11.6699C16.0008 10.6387 15.2391 10.0822 14.5227 10.0822C13.902 10.0822 13.417 10.3811 12.9513 11.0517V15.855H10.902V12.1618C10.6951 12.2339 10.4825 12.2946 10.2735 12.3416C10.1638 14.4715 8.66965 15.99 6.63994 15.99C4.53083 15.99 3 14.3502 3 12.0911V8.17295H5.04965V12.0911C5.04965 12.9368 5.46627 13.9247 6.6403 13.9247C7.72032 13.9247 8.15938 13.0886 8.2224 12.296C7.37099 11.9351 6.84398 11.0653 6.84398 9.9103C6.84398 8.71403 7.72922 8.01041 8.58312 8.01041C9.6756 8.01041 10.2802 9.10693 10.2745 10.1966C10.2745 10.1966 10.5776 10.0872 10.902 9.90169V8.17259H12.9513V8.83172C13.6524 8.25691 14.2998 8 15.0469 8C15.8723 8 16.6332 8.29099 17.1891 8.81952C17.7446 9.34769 18.0501 10.0689 18.0501 10.8504ZM18.8673 9.99354H22.3371L18.6811 14.371L18.6782 14.3742V15.8547H25.1747V14.037H21.4981L25.1719 9.601L25.1747 9.59778V8.17295H18.8673V9.99354ZM31.8147 9.07463C32.502 9.77718 32.8652 10.774 32.8652 11.9573V12.6699H27.3593C27.5014 13.6175 28.1776 14.1826 29.1704 14.1826C29.9955 14.1826 30.7091 13.8482 31.0324 13.3104L31.0377 13.301L31.0474 13.3053L32.654 14.0344L32.6483 14.0459C32.0063 15.2878 30.7283 16 29.1412 16C26.8622 16 25.3311 14.3986 25.3311 12.0151C25.3311 10.8913 25.7374 9.86652 26.4752 9.12917C27.1841 8.42052 28.131 8.03014 29.1416 8.03014C30.2223 8.0305 31.1463 8.39146 31.8147 9.07463ZM30.8697 11.0556C30.7012 10.2626 30.0564 9.7901 29.1416 9.7901C28.3069 9.7901 27.6652 10.2626 27.4224 11.0556H30.8697ZM38 8.11661C37.7283 8.0305 37.4192 8.0305 37.4192 8.0305C36.7469 8.0305 36.0985 8.29207 35.5426 8.78687V8.17295H33.4933V15.855H35.5426V11.0904C35.9468 10.3175 36.5671 9.892 37.2892 9.892C37.2892 9.892 37.614 9.89487 37.8163 9.95479L38 8.11661Z" fill="white"/>
</svg>
