<svg width="40" height="24" viewBox="0 0 40 24" fill="none" xmlns="http://www.w3.org/2000/svg">
<rect x="0.5" y="0.5" width="39" height="23" rx="3.5" fill="white"/>
<rect x="0.5" y="0.5" width="39" height="23" rx="3.5" stroke="#DBDCE0"/>
<path d="M18.0284 16.1178H15.9668L17.2563 8.14453H19.3178L18.0284 16.1178Z" fill="#00579F"/>
<path d="M25.5018 8.33945C25.0952 8.17813 24.4502 8 23.6527 8C21.6168 8 20.1831 9.08566 20.1743 10.6378C20.1574 11.783 21.2008 12.4191 21.9812 12.8009C22.7788 13.1911 23.0499 13.4458 23.0499 13.7936C23.0418 14.3277 22.4054 14.574 21.8118 14.574C20.9887 14.574 20.5477 14.447 19.8775 14.1498L19.606 14.0224L19.3175 15.8123C19.801 16.0326 20.6919 16.228 21.6168 16.2366C23.78 16.2366 25.1883 15.1677 25.205 13.5137C25.2132 12.606 24.6623 11.9105 23.4745 11.3422C22.7534 10.9774 22.3118 10.7314 22.3118 10.3581C22.3203 10.0188 22.6853 9.67122 23.4993 9.67122C24.1695 9.6542 24.6619 9.8153 25.035 9.97652L25.2215 10.0612L25.5018 8.33945Z" fill="#00579F"/>
<path d="M28.2419 13.2931C28.4117 12.8351 29.065 11.0623 29.065 11.0623C29.0565 11.0793 29.2345 10.5958 29.3363 10.2989L29.4804 10.986C29.4804 10.986 29.8708 12.8945 29.9555 13.2931C29.6333 13.2931 28.6491 13.2931 28.2419 13.2931ZM30.7868 8.14453H29.1921C28.7003 8.14453 28.3267 8.28861 28.1145 8.80608L25.0522 16.1177H27.2155C27.2155 16.1177 27.5716 15.1336 27.6481 14.9216C27.8855 14.9216 29.9898 14.9216 30.2951 14.9216C30.3543 15.2016 30.5411 16.1177 30.5411 16.1177H32.45L30.7868 8.14453Z" fill="#00579F"/>
<path d="M14.2447 8.14453L12.2257 13.5815L12.0051 12.4788C11.6318 11.2065 10.4611 9.8241 9.15472 9.13674L11.0041 16.1093H13.1842L16.4247 8.14453H14.2447Z" fill="#00579F"/>
<path d="M10.3509 8.14453H7.03393L7 8.30563C9.58744 8.96729 11.3011 10.5622 12.0051 12.4792L11.284 8.81476C11.1653 8.30552 10.8005 8.16133 10.3509 8.14453Z" fill="#FAA61A"/>
</svg>
