<svg width="40" height="24" viewBox="0 0 40 24" fill="none" xmlns="http://www.w3.org/2000/svg">
<rect x="0.5" y="0.5" width="39" height="23" rx="3.5" fill="white"/>
<rect x="0.5" y="0.5" width="39" height="23" rx="3.5" stroke="#DBDCE0"/>
<g clip-path="url(#clip0_8342_67452)">
<path d="M28.0004 2.99961H11V21H28.0004V2.99961Z" fill="#2251AA"/>
<path d="M27.5758 14.6891H11.4261V3.41481H27.5758V14.6891Z" fill="white"/>
<path d="M23.5854 5.46075L20.4164 12.8535H18.3471L16.787 6.95314C16.6928 6.59062 16.6098 6.45771 16.3233 6.3027C15.8509 6.05443 15.0749 5.81994 14.3916 5.67475L14.4375 5.46075H17.7673C18.1912 5.46075 18.5733 5.73693 18.6702 6.21377L19.4943 10.4907L21.5306 5.46075H23.5854Z" fill="#2251AA"/>
<path d="M16.4268 16.4652H15.8582V17.7031H16.4268C16.6578 17.7031 16.8343 17.6573 16.9561 17.5652C17.0779 17.4734 17.1386 17.3131 17.1386 17.0842C17.1386 16.8523 17.0779 16.6911 16.9561 16.6006C16.8343 16.5103 16.6578 16.4652 16.4268 16.4652ZM15.2341 19.4201V15.9864H16.5192C16.7719 15.9864 16.9939 16.0247 17.185 16.1015C17.3761 16.1783 17.5247 16.2973 17.631 16.4583C17.7374 16.6196 17.7904 16.8251 17.7904 17.0751C17.7904 17.325 17.7374 17.53 17.631 17.6895C17.5247 17.8493 17.3761 17.9676 17.185 18.0444C16.9939 18.1212 16.7719 18.1595 16.5192 18.1595H15.8582V19.4201H15.2341Z" fill="white"/>
<path d="M18.8886 18.0194H19.9195L19.411 16.6324H19.4018L18.8886 18.0194ZM18.3893 19.4201H17.816L19.1197 15.9864H19.7807L21.0845 19.4201H20.4188L20.0767 18.4804H18.7315L18.3893 19.4201Z" fill="white"/>
<path d="M22.1825 19.4201V17.9334L20.9435 15.9864H21.6322L22.5521 17.4772H22.5661L23.4768 15.9864H24.0407L22.8018 17.929V19.4201H22.1825Z" fill="white"/>
</g>
<defs>
<clipPath id="clip0_8342_67452">
<rect width="17" height="18" fill="white" transform="translate(11 3)"/>
</clipPath>
</defs>
</svg>
