<svg width="40" height="24" viewBox="0 0 40 24" fill="none" xmlns="http://www.w3.org/2000/svg">
<rect x="0.5" y="0.5" width="39" height="23" rx="3.5" fill="#FFF48D"/>
<rect x="0.5" y="0.5" width="39" height="23" rx="3.5" stroke="#DBDCE0"/>
<g clip-path="url(#clip0_9870_55301)">
<path d="M1 6.67416C1 6.30112 1.29605 6 1.66279 6H38.3372C38.704 6 39 6.30112 39 6.67416V17.3258C39 17.6989 38.704 18 38.3372 18H1.66279C1.29605 18 1 17.6989 1 17.3258V6.67416Z" fill="#FFF48D"/>
<path d="M28.9477 12.0045C28.9477 9.92359 30.4191 8.02696 32.9642 8.02696C35.5182 8.02696 36.994 9.92359 36.994 12.0045C36.994 14.0854 35.5226 15.982 32.9642 15.982C30.4191 15.982 28.9477 14.0854 28.9477 12.0045ZM34.7582 12.0045C34.7582 11.0022 34.0998 10.0764 32.9686 10.0764C31.8463 10.0764 31.1791 11.0022 31.1791 12.0045C31.1791 13.0067 31.8463 13.9326 32.9686 13.9326C34.0998 13.9326 34.7582 13.0067 34.7582 12.0045Z" fill="#1D1C1C"/>
<path d="M27.3791 13.4831C28.2274 12.9977 28.7356 12.0719 28.7356 11.0472C28.7356 9.52809 27.6442 8.2337 25.9474 8.2337H22.386V15.7843H24.5909V13.8562H25.0063L26.2656 15.7843H28.8637L27.3791 13.4831ZM25.5056 12.1124H24.5954V9.97752H25.5188C26.1109 9.97752 26.4954 10.4629 26.4954 11.0472C26.4909 11.627 26.0977 12.1124 25.5056 12.1124Z" fill="#1D1C1C"/>
<path d="M12.3205 8.22023L10.9949 12.7191L9.70465 8.22023H7.95046L6.64697 12.7191L5.33465 8.22023H3.00604L5.67488 15.7573H7.58814L8.82535 11.6539L10.0537 15.7573H11.9802L14.6491 8.22023H12.3205Z" fill="#1D1C1C"/>
<path d="M17.9851 13.9146H17.9807C17.1544 13.9146 16.5756 13.4157 16.3282 12.7506H21.9044H21.931C21.9751 12.4989 21.9972 12.2472 21.9972 11.9865C21.9972 9.91012 20.5303 8.01798 17.9807 8.01349V10.0584C18.8114 10.0629 19.3814 10.5618 19.6289 11.2225H14.0349C13.9907 11.4742 13.9686 11.7258 13.9686 11.9865C13.9686 14.0629 15.44 15.9596 17.9807 15.9596H17.9851V13.9146Z" fill="#1D1C1C"/>
<path d="M17.9807 15.9595C18.0691 15.9595 18.153 15.955 18.237 15.955C18.754 15.9281 19.2223 15.8247 19.6377 15.6539C20.053 15.4831 20.4242 15.2494 20.7335 14.9663C21.0428 14.6831 21.3035 14.3506 21.5023 13.9865C21.6835 13.6539 21.8161 13.2944 21.9 12.9213H19.5626C19.514 13.0202 19.461 13.1191 19.3947 13.209C19.3063 13.3303 19.2047 13.4427 19.0898 13.5371C18.9749 13.6315 18.8423 13.7124 18.701 13.7753C18.5596 13.8382 18.4005 13.8831 18.2326 13.9056C18.1486 13.9146 18.0647 13.9236 17.9763 13.9236C17.4505 13.9236 17.0263 13.7213 16.7214 13.4022L15.2014 14.9483C15.8819 15.564 16.8186 15.9595 17.9807 15.9595Z" fill="url(#paint0_linear_9870_55301)"/>
<path d="M17.9807 8.01797C15.8244 8.01797 14.4414 9.37977 14.0703 11.0607H16.3989C16.6772 10.4809 17.2251 10.0629 17.9807 10.0629C18.5816 10.0629 19.05 10.3236 19.3549 10.7191L20.8837 9.15955C20.2033 8.46292 19.2179 8.01797 17.9807 8.01797Z" fill="url(#paint1_linear_9870_55301)"/>
</g>
<defs>
<linearGradient id="paint0_linear_9870_55301" x1="20.7243" y1="11.5195" x2="17.217" y2="15.791" gradientUnits="userSpaceOnUse">
<stop offset="0.0243" stop-color="#1D1C1C" stop-opacity="0"/>
<stop offset="0.676" stop-color="#1D1C1C"/>
</linearGradient>
<linearGradient id="paint1_linear_9870_55301" x1="14.7114" y1="12.4892" x2="18.3024" y2="8.95874" gradientUnits="userSpaceOnUse">
<stop offset="0.0243" stop-color="#1D1C1C" stop-opacity="0"/>
<stop offset="0.676" stop-color="#1D1C1C"/>
</linearGradient>
<clipPath id="clip0_9870_55301">
<rect width="38" height="12" fill="white" transform="translate(1 6)"/>
</clipPath>
</defs>
</svg>
